<?xml version="1.0" encoding="utf-8"?>
<!-- Generator: Adobe Illustrator 16.0.3, SVG Export Plug-In . SVG Version: 6.00 Build 0)  -->
<!DOCTYPE svg PUBLIC "-//W3C//DTD SVG 1.1//EN" "http://www.w3.org/Graphics/SVG/1.1/DTD/svg11.dtd">
<svg fill="#fb5607" version="1.1" id="blanks" xmlns="http://www.w3.org/2000/svg" xmlns:xlink="http://www.w3.org/1999/xlink" x="0px" y="0px"
	 width="64px" height="64px" viewBox="0 0 64 64" enable-background="new 0 0 64 64" xml:space="preserve">
<path id="d10_1_" d="M3.341,40.086c-1.366-0.268-2.484-1.625-2.484-3.018V24.876c0-1.393,0.907-3.22,2.018-4.062L28.575,1.331
	c1.11-0.841,1.533-0.499,0.941,0.762l-17.476,37.19c-0.594,1.262-2.194,2.073-3.563,1.807L3.341,40.086z M29.058,54.334
	l-15.66-9.682c-1.185-0.731-3.271-1.559-4.637-1.84l-5.225-1.07c-1.366-0.279-1.571,0.176-0.458,1.014l26.111,19.646
	c1.111,0.84,2.021,0.385,2.021-1.008v-3.195C31.211,56.807,30.243,55.066,29.058,54.334z M61.127,20.814L35.426,1.331
	c-1.109-0.841-1.532-0.499-0.94,0.762l17.476,37.19c0.592,1.262,2.194,2.073,3.562,1.807l5.138-1.004
	c1.367-0.268,2.485-1.625,2.485-3.018V24.876C63.146,23.483,62.238,21.656,61.127,20.814z M34.239,52.891
	c-1.188,0.729-3.132,0.729-4.317,0l-15.107-9.25c-1.187-0.727-1.681-2.356-1.095-3.621L31.016,2.686
	c0.587-1.264,1.544-1.264,2.129,0L50.44,40.02c0.586,1.265,0.093,2.895-1.095,3.621L34.239,52.891z M60.664,41.742l-5.226,1.07
	c-1.365,0.281-3.45,1.108-4.635,1.84l-15.662,9.682c-1.185,0.732-2.152,2.473-2.152,3.865v3.195c0,1.393,0.909,1.848,2.024,1.008
	l26.107-19.646C62.235,41.918,62.029,41.463,60.664,41.742z"/>
</svg>
