<?xml version="1.0" encoding="utf-8"?>
<!-- Generator: Adobe Illustrator 16.0.3, SVG Export Plug-In . SVG Version: 6.00 Build 0)  -->
<!DOCTYPE svg PUBLIC "-//W3C//DTD SVG 1.1//EN" "http://www.w3.org/Graphics/SVG/1.1/DTD/svg11.dtd">
<svg fill="#ffbe0b" version="1.1" id="blanks" xmlns="http://www.w3.org/2000/svg" xmlns:xlink="http://www.w3.org/1999/xlink" x="0px" y="0px"
	 width="64px" height="64px" viewBox="0 0 64 64" enable-background="new 0 0 64 64" xml:space="preserve">
<path id="d12_1_" d="M32.881,8.876l-0.06-6.702c-0.012-1.381,1.051-2.156,2.364-1.722l13.43,4.444
	c1.31,0.435,3.054,1.701,3.872,2.813l8.376,11.399c0.819,1.114,0.409,2.365-0.907,2.78l-6.395,2.015
	c-1.316,0.415-3.309,0.09-4.427-0.722l-14.2-10.316C33.817,12.053,32.894,10.258,32.881,8.876z M4.13,21.888l6.391,2.015
	c1.319,0.415,3.312,0.09,4.429-0.722l14.2-10.316c1.118-0.812,2.043-2.607,2.054-3.989l0.06-6.702
	c0.013-1.381-1.051-2.156-2.361-1.722l-13.43,4.444c-1.313,0.435-3.057,1.701-3.873,2.813l-8.378,11.4
	C2.404,20.222,2.813,21.473,4.13,21.888z M29.983,14.094c1.116-0.813,2.944-0.813,4.064,0l14.198,10.315
	c1.118,0.813,1.684,2.552,1.257,3.866l-5.424,16.692c-0.427,1.314-1.907,2.388-3.289,2.388H23.239c-1.382,0-2.862-1.074-3.288-2.388
	l-5.423-16.692c-0.428-1.314,0.138-3.053,1.255-3.866L29.983,14.094z M60.342,23.458l-6.355,2.127
	c-1.31,0.439-2.732,1.872-3.158,3.187l-5.423,16.692c-0.428,1.314-0.121,3.31,0.682,4.436l3.891,5.455
	c0.802,1.126,2.118,1.128,2.924,0.006l8.253-11.49c0.805-1.122,1.472-3.171,1.479-4.552l0.076-14.146
	C62.719,23.79,61.653,23.018,60.342,23.458z M18.598,45.463l-5.424-16.692c-0.428-1.314-1.849-2.747-3.158-3.186l-6.356-2.127
	c-1.311-0.439-2.376,0.332-2.367,1.714l0.076,14.146c0.007,1.381,0.673,3.43,1.479,4.552l8.254,11.49
	c0.806,1.122,2.121,1.12,2.924-0.006l3.891-5.455C18.718,48.773,19.024,46.778,18.598,45.463z M44.796,50.835
	c-0.821-1.108-2.624-2.019-4.006-2.019H23.239c-1.382,0-3.185,0.91-4.007,2.019l-3.987,5.388c-0.821,1.112-0.417,2.361,0.897,2.784
	l13.48,4.295c1.315,0.422,3.468,0.422,4.785,0l13.479-4.295c1.315-0.423,1.72-1.672,0.897-2.784L44.796,50.835z"/>
</svg>
