<?xml version="1.0" encoding="utf-8"?>
<!-- Generator: Adobe Illustrator 16.0.3, SVG Export Plug-In . SVG Version: 6.00 Build 0)  -->
<!DOCTYPE svg PUBLIC "-//W3C//DTD SVG 1.1//EN" "http://www.w3.org/Graphics/SVG/1.1/DTD/svg11.dtd">
<svg fill="#ff006e" version="1.1" id="blanks" xmlns="http://www.w3.org/2000/svg" xmlns:xlink="http://www.w3.org/1999/xlink" x="0px" y="0px"
	 width="64px" height="64px" viewBox="0 0 64 64" enable-background="new 0 0 64 64" xml:space="preserve">
<path id="d8_1_" d="M55.181,45.753H8.844c-1.386,0-1.605,0.672-0.492,1.493l21.635,15.947c1.113,0.823,2.937,0.823,4.05,0
	l21.635-15.947C56.784,46.425,56.564,45.753,55.181,45.753z M28.074,1.404L6.604,17.667c-1.104,0.836-2.006,2.653-2.006,4.037
	v20.152c0,1.384,0.563,1.534,1.25,0.332L28.83,2.068C29.518,0.867,29.178,0.568,28.074,1.404z M57.396,17.671L35.837,1.401
	c-1.104-0.834-1.444-0.534-0.754,0.666l23.066,40.125c0.688,1.201,1.254,1.049,1.254-0.335V21.705
	C59.403,20.32,58.5,18.506,57.396,17.671z M56.438,42.193c0.693,1.199,0.127,2.181-1.257,2.181H8.844
	c-1.386,0-1.951-0.982-1.26-2.181L30.753,2.064c0.691-1.198,1.824-1.198,2.518,0L56.438,42.193z"/>
</svg>
