<svg version="1.2" xmlns="http://www.w3.org/2000/svg" viewBox="0 0 1399 1039" width="1399" height="1039"><defs><linearGradient id="P" gradientUnits="userSpaceOnUse"/><linearGradient id="g1" x1="173.9" y1="974.1" x2="140" y2="786.2" href="#P"><stop stop-color="#1a3d47"/><stop offset="1" stop-color="#288778"/></linearGradient><linearGradient id="g2" x1="157.6" y1="893" x2="128.5" y2="731.8" href="#P"><stop stop-color="#1a3d47"/><stop offset="1" stop-color="#288778"/></linearGradient><linearGradient id="g3" x1="470.4" y1="957.9" x2="289.4" y2="892.8" href="#P"><stop stop-color="#3b9587"/><stop offset="1" stop-color="#76c6a4"/></linearGradient><linearGradient id="g4" x1="580.7" y1="762" x2="440.2" y2="833.5" href="#P"><stop stop-color="#3b9587"/><stop offset="1" stop-color="#76c6a4"/></linearGradient><linearGradient id="g5" x1="404.6" y1="1063.5" x2="326.7" y2="930.9" href="#P"><stop stop-color="#3b9587"/><stop offset="1" stop-color="#76c6a4"/></linearGradient><linearGradient id="g6" x1="858.8" y1="657.9" x2="1053.1" y2="701.7" href="#P"><stop stop-color="#3b9587"/><stop offset="1" stop-color="#76c6a4"/></linearGradient><linearGradient id="g7" x1="774.8" y1="682.7" x2="904.7" y2="595" href="#P"><stop stop-color="#3b9587"/><stop offset="1" stop-color="#76c6a4"/></linearGradient><linearGradient id="g8" x1="928.8" y1="604.6" x2="1037.6" y2="746.2" href="#P"><stop stop-color="#3b9587"/><stop offset="1" stop-color="#76c6a4"/></linearGradient><radialGradient id="g9" cx="1088.7" cy="222.3" r="241.4" href="#P"><stop stop-color="#3b9587"/><stop offset="1" stop-color="#76c6a4"/></radialGradient><linearGradient id="g10" x1="493.4" y1="13.8" x2="723.3" y2="-41.9" href="#P"><stop stop-color="#1a3d47"/><stop offset="1" stop-color="#288778"/></linearGradient><linearGradient id="g11" x1="583.3" y1="22.8" x2="779.6" y2="-24.8" href="#P"><stop stop-color="#1a3d47"/><stop offset="1" stop-color="#288778"/></linearGradient><linearGradient id="g12" x1="534.1" y1="675.7" x2="575.6" y2="450.1" href="#P"><stop stop-color="#1a3d47"/><stop offset="1" stop-color="#288778"/></linearGradient><linearGradient id="g13" x1="552.8" y1="569.4" x2="582.8" y2="406.3" href="#P"><stop stop-color="#1a3d47"/><stop offset="1" stop-color="#288778"/></linearGradient><radialGradient id="g14" cx="958.4" cy="250.9" r="189.4" href="#P"><stop stop-color="#3b9587"/><stop offset="1" stop-color="#76c6a4"/></radialGradient><linearGradient id="g15" x1="1061.7" y1="418.8" x2="1223.5" y2="330.2" href="#P"><stop stop-color="#1a3d47"/><stop offset="1" stop-color="#288778"/></linearGradient><linearGradient id="g16" x1="1034.7" y1="303.4" x2="1174.1" y2="145.8" href="#P"><stop stop-color="#1a3d47"/><stop offset="1" stop-color="#288778"/></linearGradient><linearGradient id="g17" x1="1105.6" y1="126.2" x2="1439.3" y2="274.6" href="#P"><stop stop-color="#1a3d47"/><stop offset="1" stop-color="#288778"/></linearGradient><linearGradient id="g18" x1="825.5" y1="565" x2="795" y2="287.9" href="#P"><stop stop-color="#1a3d47"/><stop offset="1" stop-color="#288778"/></linearGradient><linearGradient id="g19" x1="723.7" y1="844.4" x2="794.9" y2="722.6" href="#P"><stop stop-color="#1a3d47"/><stop offset="1" stop-color="#288778"/></linearGradient><linearGradient id="g20" x1="695.4" y1="1013.2" x2="725.5" y2="850.7" href="#P"><stop stop-color="#1a3d47"/><stop offset="1" stop-color="#288778"/></linearGradient><linearGradient id="g21" x1="728.4" y1="509.7" x2="865" y2="492.9" href="#P"><stop stop-color="#1a3d47"/><stop offset="1" stop-color="#288778"/></linearGradient><linearGradient id="g22" x1="573.5" y1="1120.1" x2="462.4" y2="974.2" href="#P"><stop stop-color="#1a3d47"/><stop offset="1" stop-color="#288778"/></linearGradient><linearGradient id="g23" x1="405.6" y1="774" x2="537.1" y2="844.4" href="#P"><stop stop-color="#1a3d47"/><stop offset="1" stop-color="#288778"/></linearGradient><linearGradient id="g24" x1="203.6" y1="854.6" x2="376.2" y2="879.8" href="#P"><stop stop-color="#1a3d47"/><stop offset="1" stop-color="#288778"/></linearGradient><linearGradient id="g25" x1="554.2" y1="787" x2="582.1" y2="959.3" href="#P"><stop stop-color="#1a3d47"/><stop offset="1" stop-color="#288778"/></linearGradient><linearGradient id="g26" x1="318.4" y1="857.2" x2="465.1" y2="736.4" href="#P"><stop stop-color="#1a3d47"/><stop offset="1" stop-color="#288778"/></linearGradient><linearGradient id="g27" x1="849.2" y1="-112.7" x2="1240.2" y2="71.4" href="#P"><stop stop-color="#3b9587"/><stop offset="1" stop-color="#288778"/></linearGradient><linearGradient id="g28" x1="882.8" y1="-130.1" x2="1129.6" y2="-13.9" href="#P"><stop stop-color="#3b9587"/><stop offset="1" stop-color="#288778"/></linearGradient><linearGradient id="g29" x1="702.7" y1="-4.2" x2="880.7" y2="18" href="#P"><stop stop-color="#3b9587"/><stop offset="1" stop-color="#288778"/></linearGradient><linearGradient id="g30" x1="776.7" y1="-11.6" x2="881.9" y2="1.6" href="#P"><stop stop-color="#3b9587"/><stop offset="1" stop-color="#288778"/></linearGradient><linearGradient id="g31" x1="460.5" y1="836.2" x2="527.4" y2="589.6" href="#P"><stop stop-color="#3b9587"/><stop offset="1" stop-color="#288778"/></linearGradient><linearGradient id="g32" x1="477.4" y1="785.4" x2="517.5" y2="637.6" href="#P"><stop stop-color="#3b9587"/><stop offset="1" stop-color="#288778"/></linearGradient><linearGradient id="g33" x1="1116.4" y1="225.1" x2="1324.1" y2="675" href="#P"><stop stop-color="#1a3d47"/><stop offset="1" stop-color="#288778"/></linearGradient><linearGradient id="g34" x1="1174.8" y1="339.8" x2="1342.9" y2="704" href="#P"><stop stop-color="#1a3d47"/><stop offset="1" stop-color="#288778"/></linearGradient><linearGradient id="g35" x1="391" y1="423.5" x2="424.8" y2="210.3" href="#P"><stop stop-color="#3b9587"/><stop offset="1" stop-color="#76c6a4"/></linearGradient><linearGradient id="g36" x1="665.1" y1="666.4" x2="562.3" y2="533.5" href="#P"><stop stop-color="#3b9587"/><stop offset="1" stop-color="#76c6a4"/></linearGradient><linearGradient id="g37" x1="379.6" y1="390.3" x2="533.7" y2="255.3" href="#P"><stop stop-color="#3b9587"/><stop offset="1" stop-color="#76c6a4"/></linearGradient><linearGradient id="g38" x1="882.3" y1="346" x2="1101.8" y2="397" href="#P"><stop stop-color="#3b9587"/><stop offset="1" stop-color="#76c6a4"/></linearGradient><linearGradient id="g39" x1="785.5" y1="626.9" x2="933.3" y2="528.4" href="#P"><stop stop-color="#3b9587"/><stop offset="1" stop-color="#76c6a4"/></linearGradient><linearGradient id="g40" x1="961.4" y1="196.8" x2="1082.7" y2="357" href="#P"><stop stop-color="#3b9587"/><stop offset="1" stop-color="#76c6a4"/></linearGradient><radialGradient id="g41" cx="596.8" cy="865.9" r="257.5" href="#P"><stop stop-color="#3b9587"/><stop offset="1" stop-color="#76c6a4"/></radialGradient><linearGradient id="g42" x1="898.4" y1="1033.5" x2="781" y2="1036.4" href="#P"><stop stop-color="#3b9587"/><stop offset="1" stop-color="#288778"/></linearGradient><linearGradient id="g43" x1="814.6" y1="1033.9" x2="742.3" y2="1035.7" href="#P"><stop stop-color="#3b9587"/><stop offset="1" stop-color="#288778"/></linearGradient><radialGradient id="g44" cx="689.1" cy="731.3" r="226" href="#P"><stop stop-color="#3b9587"/><stop offset="1" stop-color="#76c6a4"/></radialGradient><linearGradient id="g45" x1="737.7" y1="48.9" x2="1070.4" y2="156" href="#P"><stop stop-color="#1a3d47"/><stop offset="1" stop-color="#288778"/></linearGradient><linearGradient id="g46" x1="863.2" y1="54.9" x2="1107.1" y2="133.5" href="#P"><stop stop-color="#1a3d47"/><stop offset="1" stop-color="#288778"/></linearGradient><linearGradient id="g47" x1="610.3" y1="930.4" x2="550.5" y2="760.3" href="#P"><stop stop-color="#1a3d47"/><stop offset="1" stop-color="#288778"/></linearGradient><linearGradient id="g48" x1="667.7" y1="869.9" x2="544.6" y2="718.9" href="#P"><stop stop-color="#1a3d47"/><stop offset="1" stop-color="#288778"/></linearGradient><linearGradient id="g49" x1="559.6" y1="831.6" x2="772.2" y2="508.1" href="#P"><stop stop-color="#1a3d47"/><stop offset="1" stop-color="#288778"/></linearGradient><linearGradient id="g50" x1="864.9" y1="869.1" x2="616.2" y2="855.8" href="#P"><stop stop-color="#1a3d47"/><stop offset="1" stop-color="#288778"/></linearGradient><radialGradient id="g51" cx="843.9" cy="711.9" r="174.5" href="#P"><stop stop-color="#3b9587"/><stop offset="1" stop-color="#76c6a4"/></radialGradient></defs><style>.a{fill:url(#g1)}.b{fill:url(#g2)}.c{fill:#3d9487}.d{fill:#1b3d48}.e{fill:url(#g3)}.f{fill:url(#g4)}.g{fill:url(#g5)}.h{fill:url(#g6)}.i{fill:url(#g7)}.j{fill:url(#g8)}.k{fill:url(#g9)}.l{fill:url(#g10)}.m{fill:url(#g11)}.n{fill:#e5e3ce}.o{fill:url(#g12)}.p{fill:url(#g13)}.q{fill:url(#g14)}.r{fill:url(#g15)}.s{fill:url(#g16)}.t{fill:url(#g17)}.u{fill:url(#g18)}.v{fill:url(#g19)}.w{fill:url(#g20)}.x{fill:url(#g21)}.y{fill:url(#g22)}.z{fill:url(#g23)}.A{fill:url(#g24)}.B{fill:url(#g25)}.C{fill:url(#g26)}.D{fill:url(#g27)}.E{fill:url(#g28)}.F{fill:url(#g29)}.G{fill:url(#g30)}.H{fill:url(#g31)}.I{fill:url(#g32)}.J{fill:url(#g33)}.K{fill:url(#g34)}.L{fill:url(#g35)}.M{fill:url(#g36)}.N{fill:url(#g37)}.O{fill:url(#g38)}.P{fill:url(#g39)}.Q{fill:url(#g40)}.R{fill:url(#g41)}.S{fill:url(#g42)}.T{fill:url(#g43)}.U{fill:url(#g44)}.V{fill:url(#g45)}.W{fill:url(#g46)}.X{fill:url(#g47)}.Y{fill:url(#g48)}.Z{fill:url(#g49)}.a0{fill:url(#g50)}.a1{fill:url(#g51)}</style><path class="a" d="m0.5 875.3l362-65.2c-1.8 24.5-81.5 104.1-104.4 93.8-22.9-10.4 6.3-37.8 8.5-39.7-3.7 2.5-84.9 59.3-102.4 49.2-17.7-10.3 11.7-33.8 12.4-34.4-1.6 0.7-94 38.2-103.8 27.6-9.8-10.8 16.4-31.4 16.4-31.4 0 0-81.2 16.2-88.7 0.1z"/><path class="b" d="m362.4 807.8q0.1 1.1 0.1 2.3l-362 65.2q-0.3-0.7-0.5-1.5c-3-18.6 99.6-39.4 99.6-39.4 0 0-35.7 3.5-35.8-14.4-0.1-17 89.8-16.6 98.7-16.5-4.8-0.2-32.7-2.3-31-18.3 1.9-17.5 114.8-3.8 114.8-3.8 0 0-28.3-8.8-22.1-24 8-19.4 135.1 31.7 138.2 50.4z"/><path class="c" d="m21.5 870.3q21.2-3.9 42.4-7.8 149.2-27.7 298.4-55.4c2.4-0.4 3.1 3.4 0.7 3.9q-21.2 3.9-42.4 7.8-149.2 27.7-298.4 55.3c-2.4 0.5-3.1-3.3-0.7-3.8z"/><path class="c" d="m263.6 888.3q36.5-38.2 73-76.3c1.8-1.8 4.3 1.1 2.6 2.9q-36.6 38.2-73.1 76.4c-1.7 1.8-4.2-1.2-2.5-3z"/><path class="c" d="m235.2 764.2q42.8 25.4 85.6 50.9c2.1 1.3-0.1 4.5-2.2 3.2q-42.9-25.5-85.7-51c-2.1-1.2 0.1-4.4 2.3-3.1z"/><path class="c" d="m177.2 899.3q46.7-37.6 93.4-75.2c1.9-1.5 4.4 1.4 2.5 3q-46.7 37.6-93.4 75.1c-2 1.6-4.5-1.3-2.5-2.9z"/><path class="c" d="m145.9 791.1q48.5 19.4 97.1 38.8c2.3 1 0.9 4.6-1.4 3.7q-48.5-19.4-97-38.9c-2.3-0.9-1-4.5 1.3-3.6z"/><path class="c" d="m86.4 897.7q49.5-28.7 99.1-57.5c2.2-1.2 3.8 2.3 1.7 3.5q-49.6 28.8-99.2 57.5c-2.1 1.3-3.8-2.2-1.6-3.5z"/><path class="c" d="m85.9 822.5q34.9 11.6 69.7 23.2c2.4 0.8 1.1 4.5-1.3 3.7q-34.9-11.6-69.7-23.2c-2.4-0.8-1.1-4.4 1.3-3.7z"/><path class="d" d="m168.7 955.5c14.4-2.2 28.7-5.3 42.9-8.7 28.4-7 56.3-15.8 83.6-26.2l20.5-7.9c3.4-1.3 6.7-2.8 10.1-4.2l10-4.4c6.7-3 13.5-5.7 20-9q9.9-4.8 19.8-9.4c6.7-3 13.1-6.6 19.6-9.9l19.4-10.2c12.9-7 25.5-14.5 38.4-21.5q-9.3 5.9-18.6 11.7c-6.3 3.9-12.4 7.9-18.7 11.6l-19.2 10.8c-6.4 3.5-12.8 7.3-19.4 10.5-13.1 6.6-26.2 13.3-39.7 19l-10.1 4.5c-3.3 1.5-6.6 3-10.1 4.3l-20.5 8.2c-27.6 10-55.6 19-84.3 25.3-14.4 3.1-28.8 5.8-43.4 7.6-14.6 1.7-29.3 3-44 2.5 14.7-0.4 29.3-2.2 43.7-4.6z"/><path class="d" d="m256.5 969.5c7.4-9.5 15.8-18.2 24.6-26.4 4.5-4.1 9.2-7.9 13.9-11.7 2.4-1.8 4.9-3.5 7.3-5.3l3.7-2.6 3.9-2.4c10-6.6 21.2-11.5 32.3-15.8q-3.9 2.2-7.8 4.4l-3.9 2.1c-1.3 0.8-2.6 1.6-3.8 2.4l-7.6 4.7-7.4 5c-9.6 6.9-19 14.3-27.6 22.4-8.8 8-17.1 16.5-25 25.4l-5.8 6.7c-1.9 2.4-3.8 4.6-5.7 7-3.8 4.6-7.3 9.4-10.8 14.3 5.5-10.7 12.2-20.8 19.7-30.2z"/><path class="d" d="m291.5 874.3c11.6 1.9 23.2 3.6 34.9 4.7 5.8 0.7 11.6 1.1 17.5 1.4 5.8 0.4 11.7 0.5 17.5 0.5 5.8 0 11.7-0.3 17.5-0.9 5.8-0.5 11.6-1.6 17.3-3-10.9 4.5-22.8 6.6-34.7 7.3-11.9 0.8-23.8 0.2-35.6-1-11.8-1.2-23.5-3.1-35-5.7-11.6-2.5-23-5.6-34.2-9.5 11.6 2.3 23.2 4.3 34.8 6.2z"/><path class="d" d="m135.7 959.9c-18.7-19.9-59.9 10.1-59.9 10.1 0 0 48.7 14.8 59.9-10.1z"/><path class="d" d="m244 987.9c-27.4-0.1-34 50.4-34 50.4 0 0 44.3-25.1 34-50.4z"/><path class="d" d="m262.7 869.8c-9.9-25.5-59.3-13.2-59.3-13.2 0 0 39.5 32.1 59.3 13.2z"/><path class="d" d="m169.4 955.8c-0.9-27.4-51.6-32.1-51.6-32.1 0 0 26.7 43.3 51.6 32.1z"/><path class="d" d="m169.7 957.2c-26.9-4.7-42 43.9-42 43.9 0 0 47.9-17.3 42-43.9z"/><path class="d" d="m222.5 945.7c-1-27.3-51.6-32-51.6-32 0 0 26.7 43.3 51.6 32z"/><path class="d" d="m222.7 947.2c-26.9-4.7-41.9 43.9-41.9 43.9 0 0 47.9-17.3 41.9-43.9z"/><path class="d" d="m402.6 873.9c-9.3-25.7-59-14.7-59-14.7 0 0 38.7 33 59 14.7z"/><path class="d" d="m403.3 875.1c-27.1 3.8-26.4 54.7-26.4 54.7 0 0 40.2-31.1 26.4-54.7z"/><path class="d" d="m298.4 877.4c7.7-26.2-39-46.6-39-46.6 0 0 11.8 49.5 39 46.6z"/><path class="d" d="m298.2 878.8c-24.1-12.9-53.6 28.6-53.6 28.6 0 0 50.9-1.4 53.6-28.6z"/><path class="d" d="m347.1 881.6c7.7-26.2-38.9-46.6-38.9-46.6 0 0 11.8 49.5 38.9 46.6z"/><path class="d" d="m347 883c-24.1-12.9-53.6 28.6-53.6 28.6 0 0 50.9-1.4 53.6-28.6z"/><path class="d" d="m280.7 944.8c-18.7-19.9-59.9 10.1-59.9 10.1 0 0 48.7 14.8 59.9-10.1z"/><path class="d" d="m281.9 945.7c-23.3 14.3-2.3 60.7-2.3 60.7 0 0 24.4-44.7 2.3-60.7z"/><path class="e" d="m321.7 798.1c99.5-25.6 210.5 2.6 213.1 15.6 1.4 7.6-73.7 24.6-136 48.5-47 18.1-180.7 87.2-193.1 20.3-4.3-23.3 16.7-58.9 116-84.4z"/><path class="c" d="m235.2 876.5c58.4-26.5 122.9-43 185.7-54.6 34.2-6.3 68.8-10.7 103.6-13 1.8-0.1 2.3 2.7 0.5 2.8-69.3 4.7-138 17.5-204.6 37.4-28.4 8.4-57 17.7-84 30-1.6 0.7-2.9-1.8-1.2-2.6z"/><path class="c" d="m257.6 885.5q10.7-13 21.5-26.1 0.3 1.1 0.7 2.2-17.6-4.9-35.2-9.7c-1.8-0.5-0.9-3.2 0.9-2.7q17.6 4.8 35.2 9.7c0.8 0.2 1.3 1.4 0.8 2.1q-10.8 13-21.5 26.1c-1.2 1.4-3.6-0.2-2.4-1.6z"/><path class="c" d="m290.2 874.7q10.8-13 21.5-26.1 0.4 1.1 0.7 2.2-17.6-4.9-35.2-9.7c-1.7-0.5-0.8-3.2 0.9-2.7q17.6 4.8 35.3 9.7c0.8 0.2 1.3 1.4 0.7 2.1q-10.7 13-21.5 26.1c-1.1 1.4-3.5-0.2-2.4-1.6z"/><path class="c" d="m324.4 863.6q11.2-12.7 22.3-25.4 0.3 1.2 0.5 2.4-17.4-5.4-34.9-10.8c-1.7-0.5-0.8-3.2 1-2.7q17.4 5.4 34.8 10.8c1.2 0.4 1.2 1.7 0.5 2.5q-11.1 12.6-22.3 25.3c-1.2 1.4-3.1-0.7-1.9-2.1z"/><path class="c" d="m357.2 853q12.3-11.6 24.5-23.3 0.2 1.2 0.5 2.5-16.9-7-33.8-13.9c-1.7-0.7-0.8-3.4 0.9-2.7q16.9 6.9 33.8 13.8c1 0.5 1.3 1.7 0.5 2.5q-12.2 11.6-24.4 23.3c-1.4 1.3-3.3-0.9-2-2.2z"/><path class="c" d="m391.2 845.7q12.2-11.6 24.5-23.3 0.2 1.2 0.5 2.4-16.9-6.9-33.8-13.8c-1.7-0.7-0.8-3.4 0.9-2.7q16.9 6.9 33.8 13.8c1 0.4 1.3 1.7 0.5 2.4q-12.2 11.7-24.5 23.4c-1.3 1.2-3.2-0.9-1.9-2.2z"/><path class="c" d="m425.2 839.6q11.9-11.4 23.7-22.7 0.3 1.2 0.5 2.4-16.4-6.7-32.8-13.4c-1.7-0.7-0.8-3.5 0.9-2.8q16.4 6.8 32.9 13.5c1 0.4 1.3 1.7 0.5 2.4q-11.9 11.4-23.8 22.7c-1.3 1.3-3.3-0.9-1.9-2.1z"/><path class="c" d="m458.9 831.3q10.5-9.5 20.9-18.9 0.3 1.2 0.5 2.4-13.9-6.1-27.9-12.3c-1.6-0.7-0.7-3.4 0.9-2.7q14 6.2 27.9 12.3c1 0.4 1.4 1.6 0.5 2.4q-10.4 9.5-20.9 18.9c-1.3 1.3-3.2-0.9-1.9-2.1z"/><path class="c" d="m487.6 823.6q9.4-6.8 18.9-13.6 0.1 1.1 0.2 2.2-10.9-6.3-21.8-12.7c-1.6-0.9 0-3.3 1.6-2.4q10.9 6.4 21.8 12.8c0.7 0.4 0.9 1.7 0.1 2.2q-9.4 6.8-18.9 13.6c-1.5 1.1-3.4-1.1-1.9-2.1z"/><path class="f" d="m453.2 725.2c50.9 26.6 82.4 85 81 87.7-3.2 6.3-35.5-21.8-68.5-33.1-28.5-9.8-129.5-26.4-117.8-62.7 7.3-22.4 58.1-16.5 105.3 8.1z"/><path class="c" d="m360 716.8c61.6 17.1 122.8 48.5 171.7 89.3 1.4 1.2-0.1 3.6-1.5 2.4-48.9-40.7-109.7-72-171.1-89-1.8-0.5-0.8-3.2 0.9-2.7z"/><path class="c" d="m365.8 729.3q9.7-2.1 19.5-4.3-0.4 1.2-0.8 2.3-6.5-8.6-12.9-17.2c-1.1-1.5 1-3.4 2.1-1.9q6.5 8.6 12.9 17.2c0.7 0.9 0.3 2.1-0.8 2.4q-9.7 2.2-19.4 4.4c-1.8 0.4-2.4-2.5-0.6-2.9z"/><path class="c" d="m388.6 736.2q9.8-1.4 19.7-2.8-0.5 1.1-1 2.1-5.7-9.2-11.4-18.3c-1-1.6 1.6-2.9 2.6-1.3q5.7 9.2 11.4 18.3c0.5 0.8-0.2 1.9-1 2q-9.9 1.4-19.8 2.8c-1.8 0.2-2.4-2.6-0.5-2.8z"/><path class="c" d="m411.2 745q9.9-1 19.8-2.1-0.5 1.1-1 2.1-5.4-9.4-10.8-18.7c-0.9-1.6 1.7-2.9 2.6-1.3q5.4 9.4 10.8 18.7c0.4 0.8-0.1 2-1 2q-10 1.1-19.9 2.1c-1.8 0.2-2.4-2.6-0.5-2.8z"/><path class="c" d="m432.8 753.9q9.9-0.2 19.9-0.4-0.7 1.1-1.4 2.1-4.5-9.8-9.1-19.5c-0.8-1.7 1.8-3 2.6-1.3q4.5 9.8 9.1 19.5c0.5 1.1-0.3 2.1-1.4 2.1q-9.9 0.2-19.9 0.3c-1.9 0-1.7-2.8 0.2-2.8z"/><path class="c" d="m454.9 766.9q10-0.1 19.9-0.3-0.7 1-1.3 2.1-4.6-9.8-9.2-19.6c-0.7-1.6 1.8-2.9 2.6-1.2q4.6 9.7 9.1 19.5c0.5 1-0.3 2-1.4 2.1q-9.9 0.1-19.9 0.3c-1.8 0-1.6-2.8 0.2-2.9z"/><path class="c" d="m477.7 778.7q8.5-0.1 17-0.3-0.7 1.1-1.4 2.1-3.9-8.3-7.8-16.7c-0.8-1.6 1.8-2.9 2.6-1.2q3.9 8.3 7.8 16.6c0.4 1.1-0.3 2.1-1.4 2.1q-8.5 0.1-17 0.3c-1.9 0-1.7-2.8 0.2-2.9z"/><path class="c" d="m495.4 788.8q7.3 0.1 14.6 0.1-0.7 1.1-1.4 2.1-3.1-7.2-6.3-14.5c-0.7-1.7 1.9-2.9 2.6-1.2q3.2 7.2 6.3 14.4c0.5 1.1-0.3 2.1-1.4 2.1q-7.3-0.1-14.6-0.1c-1.8 0-1.6-2.9 0.2-2.9z"/><path class="c" d="m511 797.1q5.8 0.7 11.7 1.4-0.8 0.9-1.5 1.7-1.9-6.1-3.8-12.1c-0.5-1.8 2.3-2.3 2.8-0.6q1.9 6.1 3.8 12.2c0.2 0.8-0.7 1.8-1.5 1.7q-5.9-0.7-11.7-1.5c-1.8-0.2-1.7-3 0.2-2.8z"/><path class="g" d="m534.2 812.9c7.9 3.8-44.6 80.3-102 125.1-57.4 44.8-102.8 58.4-112.4 36.9-14.2-31.6 76.7-78.6 103.3-92.7 26.6-14.2 102.2-73.5 111.1-69.3z"/><path class="c" d="m346.3 952.3c21.5-10.3 42.1-22.8 62-35.8 45.1-29.4 87.2-64 122-105.2 1.2-1.4 3.6 0.1 2.4 1.5-34 40.3-74.9 74.3-118.8 103.4-21.3 14.1-43.3 27.7-66.4 38.6-1.6 0.8-2.9-1.7-1.2-2.5z"/><path class="c" d="m352.1 935.9q12 0.5 24 1.1c1.2 0 1.5 1.3 1.1 2.2q-5.8 11.6-11.7 23.2c-0.8 1.6-3.2 0-2.4-1.6q5.9-11.6 11.7-23.2 0.5 1.1 1.1 2.2-12-0.5-24-1.1c-1.8-0.1-1.6-2.9 0.2-2.8z"/><path class="c" d="m377.7 923q12-0.4 24-0.9c0.9 0 1.5 1.1 1.2 1.9q-4.8 12.1-9.7 24.1c-0.7 1.7-3.4 0.8-2.7-0.9q4.9-12.1 9.7-24.1 0.6 0.9 1.3 1.9-12 0.4-24 0.9c-1.9 0.1-1.7-2.8 0.2-2.9z"/><path class="c" d="m402.3 907.8q11.9-0.8 23.9-1.7c1 0 2 0.8 1.6 1.9q-4.4 12.2-8.9 24.4c-0.6 1.7-3.3 0.8-2.7-0.9q4.5-12.2 8.9-24.4 0.8 0.9 1.7 1.9-12 0.8-24 1.6c-1.8 0.2-2.4-2.6-0.5-2.8z"/><path class="c" d="m425.6 892.9q11.8-1.9 23.7-3.8c1.1-0.2 1.9 0.8 1.6 1.9q-3.3 12.5-6.7 25c-0.5 1.8-3.2 0.9-2.7-0.9q3.3-12.5 6.7-25.1 0.8 1 1.6 1.9-11.8 1.9-23.7 3.8c-1.8 0.3-2.4-2.5-0.5-2.8z"/><path class="c" d="m449.1 872.7q11.8-1.8 23.7-3.7c1.1-0.2 1.9 0.8 1.6 1.8q-3.3 12.6-6.7 25.1c-0.5 1.8-3.2 0.9-2.7-0.9q3.3-12.6 6.7-25.1 0.8 0.9 1.6 1.9-11.8 1.9-23.7 3.8c-1.8 0.2-2.4-2.6-0.5-2.9z"/><path class="c" d="m473.6 854q10.1-1.6 20.2-3.2c1.1-0.2 1.9 0.8 1.7 1.8q-2.9 10.7-5.8 21.4c-0.4 1.8-3.2 0.9-2.7-0.9q2.9-10.7 5.8-21.4 0.8 1 1.6 1.9-10.1 1.6-20.2 3.2c-1.8 0.3-2.4-2.5-0.6-2.8z"/><path class="c" d="m492.5 838.3q8.7-1.6 17.3-3.2c1.2-0.2 1.9 0.8 1.7 1.9q-2.3 9.2-4.5 18.5c-0.4 1.8-3.1 0.8-2.7-0.9q2.2-9.3 4.5-18.5 0.8 0.9 1.6 1.8-8.7 1.6-17.3 3.2c-1.8 0.4-2.4-2.4-0.6-2.8z"/><path class="c" d="m509.3 825.3q6.7-2.1 13.5-4.2c0.9-0.3 1.8 0.7 1.7 1.5q-0.9 7.6-1.9 15.2c-0.2 1.8-3 1.7-2.8-0.2q0.9-7.6 1.9-15.2 0.8 0.8 1.7 1.5-6.8 2.1-13.6 4.2c-1.7 0.5-2.3-2.3-0.5-2.8z"/><path class="h" d="m1146.9 826c-22.1 69.8-155.9-21.9-203.8-47.5-63.3-33.8-141.4-61.9-138.8-69.8 4.4-13.7 126.9-29 229.9 11.5 102.7 40.5 120.4 81.4 112.7 105.8z"/><path class="c" d="m1114.5 818.2c-27.2-16.7-56.6-30.4-85.7-43.3-68.6-30.1-140.3-52.9-213.8-67.1-2-0.4-1-3.3 1-2.9 36.8 7.1 73.2 16.3 108.9 27.6 65.7 20.8 132.3 47 191.3 83.1 1.7 1 0 3.6-1.7 2.6z"/><path class="c" d="m1088.3 823.6q-9.8-15.4-19.5-30.7c-0.5-0.8 0.1-2.1 1.1-2.2q19.4-2.9 38.9-5.7c1.9-0.3 2.6 2.7 0.6 3q-19.5 2.9-38.9 5.7 0.5-1.1 1-2.2 9.8 15.4 19.5 30.7c1.1 1.7-1.7 3.1-2.7 1.4z"/><path class="c" d="m1054.8 807.7q-9.7-15.3-19.5-30.7c-0.5-0.8 0.2-2.1 1.1-2.2q19.5-2.8 38.9-5.7c2-0.3 2.6 2.7 0.7 3q-19.5 2.9-39 5.7 0.6-1.1 1.1-2.2 9.7 15.4 19.5 30.8c1 1.6-1.7 3-2.8 1.3z"/><path class="c" d="m1020.2 792q-10.2-15.1-20.5-30.1c-0.6-0.9-0.4-2.3 0.9-2.6q19.3-3.4 38.7-6.9c2-0.3 2.6 2.7 0.6 3q-19.3 3.5-38.7 7 0.4-1.3 0.8-2.6 10.3 15.1 20.5 30.1c1.1 1.6-1.2 3.7-2.3 2.1z"/><path class="c" d="m986.5 776.3q-11.5-14.1-23-28.1c-0.8-1-0.3-2.3 0.8-2.6q19-5.1 38-10.3c1.9-0.5 2.5 2.5 0.6 3q-19 5.2-38 10.4 0.5-1.3 0.9-2.6 11.5 14.1 23 28.2c1.3 1.5-1 3.6-2.3 2z"/><path class="c" d="m951.1 764q-11.5-14.1-23-28.2c-0.7-0.9-0.2-2.2 0.9-2.5q19-5.2 37.9-10.3c2-0.6 2.6 2.5 0.7 3q-19 5.1-38 10.3 0.4-1.3 0.8-2.5 11.6 14.1 23.1 28.1c1.2 1.6-1.1 3.6-2.4 2.1z"/><path class="c" d="m915.7 752.9q-11.2-13.7-22.4-27.4c-0.8-0.9-0.3-2.2 0.8-2.5q18.5-5.1 37-10.1c1.9-0.5 2.5 2.5 0.6 3.1q-18.5 5-37 10 0.5-1.3 0.9-2.5 11.2 13.7 22.4 27.3c1.3 1.6-1.1 3.6-2.3 2.1z"/><path class="c" d="m880.7 739.5q-9.9-11.4-19.8-22.9c-0.8-1-0.3-2.2 0.8-2.6q15.8-4.7 31.5-9.4c1.9-0.6 2.5 2.5 0.6 3q-15.7 4.7-31.5 9.4 0.5-1.2 0.9-2.5 9.9 11.5 19.8 23c1.3 1.5-1 3.6-2.3 2z"/><path class="c" d="m851.1 727.5q-9.2-8.5-18.4-17.1c-0.8-0.6-0.4-2 0.4-2.4q12.5-5.3 25-10.7c1.8-0.7 3.2 2 1.4 2.8q-12.5 5.4-25 10.7 0.2-1.2 0.5-2.4 9.2 8.5 18.4 17.1c1.5 1.3-0.8 3.3-2.3 2z"/><path class="i" d="m1016.9 630.2c7.7 40.4-102.5 44.6-134.3 51.3-36.7 7.7-75 33.5-77.6 26.3-1.1-3 40.3-61.3 98.3-82.9 53.7-20 108.8-19.6 113.6 5.3z"/><path class="c" d="m1004.6 631.3c-67.9 10-137.1 35.4-194.7 72.4-1.7 1-3-1.7-1.4-2.8 57.8-37.1 127.4-62.6 195.5-72.6 1.9-0.3 2.5 2.7 0.6 3z"/><path class="c" d="m995.2 643.9q-10.2-3.7-20.3-7.3c-1.1-0.4-1.3-1.8-0.5-2.6q8-8.4 16.1-16.8c1.4-1.4 3.4 0.9 2 2.3q-8 8.4-16.1 16.8-0.2-1.3-0.5-2.6 10.1 3.6 20.2 7.2c1.9 0.7 0.9 3.6-0.9 3z"/><path class="c" d="m969.9 648.1q-10.3-2.8-20.7-5.5c-0.9-0.3-1.4-1.6-0.8-2.3q7.3-9.1 14.6-18.1c1.2-1.5 3.8 0.2 2.6 1.7q-7.4 9-14.7 18.1-0.4-1.2-0.8-2.4 10.4 2.8 20.8 5.6c1.9 0.5 0.9 3.4-1 2.9z"/><path class="c" d="m944.6 654.6q-10.5-2.5-20.9-4.9c-1-0.2-1.4-1.6-0.9-2.3q7.1-9.3 14.1-18.5c1.2-1.6 3.7 0.1 2.5 1.7q-7 9.2-14 18.5-0.4-1.2-0.8-2.3 10.5 2.4 20.9 4.8c2 0.5 1 3.4-0.9 3z"/><path class="c" d="m921.1 661.3q-10.6-1.5-21.3-3c-1.1-0.2-1.8-1.3-1.2-2.4q6.2-9.8 12.4-19.7c1-1.7 3.6 0.1 2.5 1.7q-6.1 9.9-12.3 19.7-0.6-1.2-1.2-2.4 10.6 1.5 21.3 3c1.9 0.3 1.8 3.4-0.2 3.1z"/><path class="c" d="m895.7 672.3q-10.6-1.5-21.3-3c-1.1-0.1-1.8-1.3-1.2-2.4q6.2-9.8 12.4-19.6c1-1.7 3.6 0 2.6 1.7q-6.2 9.8-12.4 19.6-0.6-1.2-1.2-2.4 10.7 1.6 21.3 3c1.9 0.3 1.8 3.4-0.2 3.1z"/><path class="c" d="m869.8 681.9q-9.1-1.3-18.1-2.5c-1.2-0.2-1.9-1.4-1.2-2.4q5.2-8.4 10.5-16.8c1-1.7 3.6 0 2.6 1.7q-5.3 8.4-10.6 16.8-0.6-1.2-1.2-2.4 9.1 1.3 18.2 2.5c1.9 0.3 1.8 3.4-0.2 3.1z"/><path class="c" d="m849.5 690.3q-7.8-0.9-15.6-1.8c-1.2-0.1-1.9-1.3-1.2-2.4q4.3-7.3 8.6-14.6c1-1.7 3.6 0 2.6 1.7q-4.3 7.3-8.7 14.6-0.6-1.1-1.2-2.3 7.8 0.9 15.7 1.8c1.9 0.2 1.8 3.3-0.2 3z"/><path class="c" d="m831.8 697.1q-6.4 0-12.7 0c-0.9 0-1.8-1.1-1.4-2q2.8-6.3 5.6-12.5c0.8-1.8 3.7-0.9 2.9 0.9q-2.8 6.3-5.6 12.5-0.7-1-1.3-2 6.3 0 12.6 0c2 0 1.8 3.1-0.1 3.1z"/><path class="j" d="m914.6 796.7c26.5 18.6 117.4 80.9 98.1 112.8-13.2 21.7-59.9 1.2-115.3-54.3-55.4-55.6-101.4-144.4-92.4-147.4 10.1-3.3 83 70.2 109.6 88.9z"/><path class="c" d="m985.7 884.4c-23.2-14.8-45-32.2-65.8-50.1-43.1-36.9-82.3-78.7-113.3-126.3-1.1-1.7 1.7-3 2.8-1.4 31.7 48.7 72.1 91.3 116.4 128.7 19.6 16.6 39.9 32.7 61.6 46.5 1.6 1.1-0.1 3.7-1.7 2.6z"/><path class="c" d="m983.1 866.6q-12.9-1-25.8-2 0.8-1.1 1.5-2.2 4.7 13.1 9.4 26.3c0.7 1.9-2.1 3.2-2.8 1.4q-4.7-13.2-9.4-26.4c-0.3-1 0.3-2.3 1.5-2.2q12.9 1 25.8 2c2 0.2 1.8 3.2-0.2 3.1z"/><path class="c" d="m957.5 849.5q-12.7-2.1-25.5-4.2 0.8-0.9 1.6-1.8 3.6 13.5 7.1 27c0.5 1.9-2.5 2.5-3 0.6q-3.6-13.5-7.1-27c-0.3-0.9 0.6-2 1.6-1.9q12.7 2.1 25.5 4.2c1.9 0.3 1.8 3.4-0.2 3.1z"/><path class="c" d="m932.5 829.8q-12.7-2.5-25.4-5 1-0.9 2-1.8 3.1 13.7 6.2 27.3c0.5 1.9-2.5 2.5-3 0.6q-3.1-13.6-6.3-27.2c-0.2-1.3 1-2 2-1.8q12.7 2.5 25.4 5c2 0.4 1 3.3-0.9 2.9z"/><path class="c" d="m909.5 810.7q-12.4-3.6-24.8-7.2 1-0.9 2-1.8 1.9 13.9 3.8 27.7c0.3 2-2.7 2.6-3 0.7q-1.9-13.9-3.8-27.7c-0.2-1.2 0.8-2.2 1.9-1.8q12.5 3.6 24.9 7.2c1.9 0.5 0.9 3.5-1 2.9z"/><path class="c" d="m887.1 786.1q-12.4-3.6-24.9-7.2 1-0.9 2-1.8 2 13.9 3.9 27.7c0.3 2-2.8 2.6-3 0.6q-2-13.8-3.9-27.7c-0.2-1.1 0.8-2.1 2-1.8q12.4 3.6 24.8 7.2c2 0.6 1 3.5-0.9 3z"/><path class="c" d="m863.3 762.8q-10.6-3.1-21.1-6.2 1-0.9 1.9-1.7 1.7 11.8 3.3 23.6c0.3 1.9-2.7 2.6-3 0.6q-1.6-11.8-3.3-23.6c-0.1-1.2 0.9-2.1 2-1.8q10.6 3.1 21.2 6.1c1.9 0.6 0.9 3.5-1 3z"/><path class="c" d="m845.2 743.5q-9-2.9-18.1-5.7 1-0.9 2-1.8 1.2 10.2 2.3 20.4c0.2 1.9-2.8 2.5-3 0.6q-1.2-10.2-2.3-20.4c-0.1-1.1 0.8-2.2 2-1.8q9 2.9 18 5.8c1.9 0.6 1 3.5-0.9 2.9z"/><path class="c" d="m829.1 727.3q-7-3.1-14-6.2 1-0.7 2-1.4 0 8.2 0 16.5c0 2-3.1 1.8-3.1-0.2q0.1-8.2 0.1-16.5c0-0.9 1.1-1.8 2-1.4q6.9 3.2 13.9 6.3c1.8 0.8 0.9 3.7-0.9 2.9z"/><path class="k" d="m1176.8 267.9c-54.3 11.7-80.6-48.6-80.6-48.6-52.1 43.6-116.6 16.9-123.3-19.8-17.2-94.2 113.7-174.1 155.5-197 7.4-4 15.2-1.7 20.2 4.7 101.7 132.3 83.3 249 28.2 260.7z"/><path class="c" d="m1141.6 24.9c-5.9 38.7-13.6 77.1-22.3 115.3-13.8 60.5-29 124.4-59.6 179-1.4 2.6-5.6 0.7-4.2-1.9 31-55.4 46.3-120.1 60.1-181.5 8.3-37 15.7-74.2 21.4-111.6 0.5-3 5-2.2 4.6 0.7z"/><path class="c" d="m1017 210q45.7-20 91.5-40c1-0.4 2.1 0.1 2.7 0.9q31.3 37.9 62.6 75.9c1.8 2.3-1.9 4.9-3.8 2.6q-15.2-18.4-30.3-36.8-10.7-12.9-21.4-25.9c-2.5-3-5.1-5.9-7.4-9-1-1.3-4.7-4.2-2.2-3.7 2.8 0.6-2.1 1.6-3 2.3-2.9 2-7.2 3.1-10.5 4.5q-15.4 6.8-30.9 13.5-22.9 10-45.8 20c-2.7 1.2-4.3-3.2-1.5-4.3z"/><path class="c" d="m1001 161.3q60.1-23.1 120.2-46.3c1-0.4 2.1 0.1 2.7 0.9q34 40.4 67.9 80.9c1.9 2.2-1.9 4.9-3.8 2.6q-19.9-23.7-39.8-47.4-11.3-13.5-22.7-27.1c-1.4-1.6-3.2-4.8-5.1-6 2.8 1.8 2.4-0.4-0.7 1.6-7.1 4.7-17.6 6.8-25.5 9.9q-19.3 7.4-38.7 14.9-26.4 10.2-52.9 20.4c-2.8 1-4.4-3.3-1.6-4.4z"/><path class="c" d="m1032.9 103.9q48.6-16.8 97.3-33.7c1.1-0.3 2 0.1 2.7 0.9q29.4 32.5 58.9 64.9c1.9 2.2-1.8 4.8-3.8 2.7q-16.3-18-32.5-35.9-10.5-11.6-21-23.2c-1.5-1.6-3-4-4.8-5.2-0.4-0.3 3.8-0.3-0.1 0.9-32 10-63.5 22-95.2 33-2.8 0.9-4.3-3.4-1.5-4.4z"/><path class="c" d="m1099.5 43.1q19.1-7.7 38.2-15.5c0.7-0.2 1.7-0.1 2.2 0.4q14.7 15.7 29.3 31.4c2 2.1-1 5.7-3 3.5q-6.9-7.4-13.7-14.8c-4-4.1-10.1-13.9-15.4-16.4 3.1 1.4-0.6 1.4-3.4 2.5q-6.2 2.5-12.4 5-10.1 4.1-20.3 8.2c-2.7 1.2-4.3-3.2-1.5-4.3z"/><path class="l" d="m662.7 95.1l90.9 375.2c-25.8-0.3-114.2-78.8-104.8-103.6 9.4-24.6 40 4.4 42.2 6.5-2.9-3.7-67.5-85.2-58-104.2 9.7-19.2 36.1 10.1 36.8 10.9-0.8-1.7-45.9-96.2-35.4-107.1 10.7-11 33.9 15.2 33.9 15.2 0 0-22-84.1-5.6-92.9z"/><path class="m" d="m756 470.1q-1.1 0.2-2.4 0.2l-90.9-375.2q0.7-0.4 1.5-0.6c19.3-4.4 47.5 101.8 47.5 101.8 0 0-5.8-37.1 12.9-38.4 17.7-1.1 22.9 93.2 23.4 102.4 0-5 0.4-34.4 17.3-33.6 18.4 0.9 11.1 120.1 11.1 120.1 0 0 7.5-30.3 23.8-24.7 20.9 7.2-24.8 143.5-44.2 148z"/><path class="c" d="m669.2 116.8q5.4 21.9 10.9 43.9 38.3 154.6 76.6 309.2c0.6 2.6-3.3 3.5-4 1q-5.4-22-10.8-43.9-38.3-154.6-76.7-309.2c-0.6-2.6 3.4-3.5 4-1z"/><path class="c" d="m665.5 371.6q42.2 35.9 84.5 71.7c2 1.7-0.9 4.5-2.9 2.9q-42.3-35.9-84.6-71.8c-2-1.7 1-4.5 3-2.8z"/><path class="c" d="m793.8 334q-24 46.5-48.1 92.9c-1.2 2.3-4.6 0.2-3.4-2.1q24-46.5 48-92.9c1.2-2.3 4.7-0.2 3.5 2.1z"/><path class="c" d="m648.6 281.7q42.3 46.6 84.6 93.2c1.7 1.9-1.2 4.7-3 2.8q-42.3-46.6-84.6-93.2c-1.7-1.9 1.2-4.7 3-2.8z"/><path class="c" d="m760 242.2q-17.3 52-34.6 104.1c-0.9 2.5-4.8 1.3-3.9-1.2q17.3-52 34.6-104.1c0.8-2.5 4.7-1.3 3.9 1.2z"/><path class="c" d="m644.5 186.5q33.3 50.1 66.5 100.3c1.4 2.1-2.2 4.1-3.6 1.9q-33.2-50.1-66.4-100.3c-1.5-2.2 2.1-4.1 3.5-1.9z"/><path class="c" d="m723.3 181.3q-10 37.2-20 74.5c-0.6 2.5-4.5 1.3-3.9-1.2q10-37.3 20-74.5c0.7-2.6 4.6-1.4 3.9 1.2z"/><path class="n" d="m727.6 58.2c-3.3 14.5-6 29.1-8.3 43.8-1.1 7.3-2.3 14.6-3.3 21.9-0.9 7.4-2 14.7-2.7 22.1l-1.1 11.1c-0.3 3.7-0.8 7.3-1.1 11l-1.7 22.2-1.1 22.2-0.2 5.5-0.1 5.6-0.2 11.1-0.2 11.1c0 3.7 0.1 7.4 0.1 11.1 0.1 7.4 0.1 14.8 0.4 22.2 0.8 14.8 1.3 29.6 2.9 44.3l0.9 11.1c0.4 3.7 0.6 7.4 1.1 11.1l3 22c0.5 3.7 0.8 7.4 1.5 11l1.9 11q2 10.9 3.8 21.9-2.5-10.8-4.9-21.7l-2.5-10.9c-0.8-3.6-1.3-7.3-2-10.9l-3.6-22.1c-0.7-3.6-0.9-7.3-1.4-11l-1.3-11.1-1.3-11.1c-0.5-3.7-0.5-7.4-0.8-11.1l-1.4-22.3c-0.3-7.5-0.4-14.9-0.6-22.4-0.1-3.7-0.2-7.4-0.2-11.1l0.1-11.2c0.6-29.8 2.6-59.5 6.6-89 0.9-7.4 2.2-14.7 3.3-22.1 1.2-7.3 2.6-14.6 3.9-21.9 3.1-14.6 6.2-29.1 10.5-43.4z"/><path class="n" d="m644 171.8c1.8 6.2 3.5 12.4 5.6 18.5 2 6.2 4.1 12.2 6.3 18.3 4.3 12.1 9.1 24.1 14.4 35.8 5.1 11.8 10.9 23.3 17.1 34.5l4.8 8.4 5.1 8.2 2.5 4.1 2.8 4q2.7 4 5.4 8.1c-8.7-9.6-16.8-19.9-23.6-31-1.8-2.7-3.4-5.5-5-8.4-1.6-2.8-3.3-5.6-4.8-8.5l-4.4-8.7c-1.4-2.9-2.7-5.9-4.1-8.8-5.2-12-9.8-24.1-13.6-36.6-3.7-12.4-6.7-25.1-8.5-37.9z"/><path class="n" d="m780.7 113.1c-5.4 9.4-11.2 18.6-17.1 27.6-5.9 9.1-12.1 18-18.3 26.9-6.3 8.8-12.6 17.5-19.2 26.1-6.6 8.6-13.3 17.1-20.5 25.3 5.7-9.3 11.6-18.4 17.6-27.3 6.1-9 12.2-17.9 18.4-26.7 6.3-8.8 12.6-17.6 19.1-26.3 6.5-8.6 13.1-17.2 20-25.6z"/><path class="n" d="m739.7 26.8c5.8 1.9-1.9 48.1-14.6 43.8-12.8-4.2 8.7-45.8 14.6-43.8z"/><path class="n" d="m784 155.4c2.5 5.6-36.7 31.2-42.2 18.9-5.5-12.2 39.7-24.5 42.2-18.9z"/><path class="n" d="m700.8 72.8c5.9-1.4 23.6 42 10.5 45-13.2 3.1-16.6-43.6-10.5-45z"/><path class="n" d="m671.4 192.7c6.1 0.4 10.9 47-2.6 46.2-13.4-0.8-3.6-46.5 2.6-46.2z"/><path class="n" d="m645.2 259.6c3.3-5.1 46 14.2 38.6 25.4-7.4 11.3-42.1-20.2-38.6-25.4z"/><path class="n" d="m684.4 172.6c5.6-2.4 30.7 37.1 18.3 42.5-12.3 5.3-24-40-18.3-42.5z"/><path class="n" d="m734.4 229.5c4.9 3.5-15.7 45.5-26.7 37.8-11-7.8 21.6-41.4 26.7-37.8z"/><path class="n" d="m637.1 139.5c5.9-1.5 24.6 41.4 11.6 44.7-13 3.4-17.6-43.1-11.6-44.7z"/><path class="n" d="m797.8 89.2c4.9 3.5-15.9 45.4-26.9 37.6-10.9-7.8 21.8-41.2 26.9-37.6z"/><path class="n" d="m736.1 123.4c5.3 3.1-12 46.6-23.5 39.7-11.6-6.9 18.2-42.9 23.5-39.7z"/><path class="o" d="m400.6 487.1l394.8 72.7c-11.2 24.4-123.2 75.1-142.7 55.6-19.4-19.3 21.1-36 24-37.2-4.7 1.2-109.5 27.9-123.5 10.8-14.2-17.3 24.9-30 25.9-30.3-1.9 0.1-110.7 2.9-116.6-11.8-5.9-14.8 28.7-25.7 28.7-25.7 0 0-89.1-14.8-90.6-34.1z"/><path class="p" d="m796.2 557.5q-0.2 1.1-0.8 2.3l-394.8-72.7q0-0.8 0.1-1.7c4-20.1 116.9-1.9 116.9-1.9 0 0-37.8-10.2-31.1-28.5 6.5-17.4 98.2 17.7 107.2 21.1-4.8-2.1-32.5-14.9-24.6-30.6 8.7-17.2 118.8 40.3 118.8 40.3 0 0-25.6-19.9-13.4-33 15.7-16.8 125.8 84.4 121.7 104.7z"/><path class="c" d="m424 490.2q23.1 4.1 46.3 8.2 163 29.2 326.1 58.4c2.7 0.4 1.9 4.6-0.8 4.1q-23.1-4.1-46.2-8.3-163.1-29.1-326.2-58.3c-2.7-0.5-1.9-4.6 0.8-4.1z"/><path class="c" d="m664.3 601.7q52-25 104-49.9c2.5-1.2 3.9 2.8 1.5 4q-52 24.9-104 49.9c-2.5 1.1-3.9-2.9-1.5-4z"/><path class="c" d="m683.1 463.9q33.9 42.5 67.8 85c1.7 2.1-1.8 4.5-3.5 2.4q-33.9-42.5-67.8-85c-1.7-2.1 1.8-4.5 3.5-2.4z"/><path class="c" d="m571.8 579.6q62.2-20.4 124.4-40.8c2.5-0.8 4 3.1 1.4 4q-62.2 20.4-124.3 40.8c-2.6 0.9-4-3.1-1.5-4z"/><path class="c" d="m581.6 457.1q42 38.5 84.1 77c2 1.8-0.7 5.1-2.7 3.2q-42.1-38.5-84.2-77c-2-1.8 0.7-5 2.8-3.2z"/><path class="c" d="m479.7 543.1q61.7-10.3 123.4-20.6c2.7-0.4 3 3.8 0.4 4.2q-61.8 10.3-123.5 20.6c-2.7 0.5-3-3.7-0.3-4.2z"/><path class="c" d="m508.1 466.1q31.2 25.3 62.4 50.6c2.1 1.7-0.7 4.9-2.8 3.2q-31.2-25.3-62.3-50.6c-2.2-1.7 0.6-4.9 2.7-3.2z"/><path class="q" d="m1055.9 214.8c-25.9 35.4-73 13.6-73 13.6-7.8 53-59.9 71-83.1 52.8-59.4-46.5-24-162.2-11.4-197.6 2.3-6.2 8.1-8.9 14.4-7.7 129.2 24.7 179.4 103.2 153.1 138.9z"/><path class="c" d="m907.9 90c16.8 25.9 32.4 52.6 47.2 79.6 23.6 42.9 48 88.6 58.6 136.8 0.5 2.3-3 3.3-3.5 1.1-10.7-48.9-35.6-95.1-59.6-138.6-14.4-26.1-29.5-51.9-45.8-77-1.2-1.9 1.8-3.9 3.1-1.9z"/><path class="c" d="m931.3 264.3q16.5-35.7 33.1-71.4c0.3-0.8 1.2-1.1 2-0.9q38.3 6 76.7 12c2.3 0.3 1.4 3.9-0.9 3.5q-18.6-2.9-37.1-5.8-13.1-2.1-26.2-4.1c-3-0.5-6.1-0.8-9.1-1.4-1.2-0.3-5-0.1-3.2-1.1 1.9-1.1-0.4 2.1-0.6 2.9-0.7 2.7-2.6 5.7-3.8 8.2q-5.6 12.1-11.2 24.1-8.2 17.9-16.5 35.8c-1 2.1-4.2 0.4-3.2-1.8z"/><path class="c" d="m896.4 244q23.4-45.1 46.7-90.2c0.4-0.8 1.2-1 2-0.9q41.2 6.1 82.4 12.1c2.3 0.4 1.5 3.9-0.8 3.6q-24.2-3.6-48.3-7.2-13.8-2-27.6-4c-1.7-0.3-4.5-1.2-6.2-0.9 2.6-0.4 1.3-1.5 0.5 1.3-1.8 6.5-6.8 13.2-9.9 19.2q-7.5 14.5-15 29-10.3 19.9-20.6 39.8c-1.1 2-4.2 0.3-3.2-1.8z"/><path class="c" d="m885.2 193.5q19.9-35.4 39.7-70.8c0.5-0.8 1.2-1 2.1-0.9q34.3 3.7 68.7 7.4c2.3 0.3 1.4 3.8-0.9 3.6q-18.9-2.1-37.9-4.2-12.3-1.3-24.5-2.6c-1.7-0.2-3.9-0.9-5.6-0.6-0.4 0 2.1-2.2 0.4 0.6-13.6 22.6-25.9 46.2-38.8 69.2-1.2 2.1-4.4 0.3-3.2-1.7z"/><path class="c" d="m892.6 122.8q7.2-14.6 14.4-29.2c0.3-0.5 1-1 1.6-0.9q16.8 1.6 33.6 3.2c2.3 0.2 2.5 3.8 0.1 3.6q-7.9-0.8-15.8-1.5c-4.5-0.4-13.2-3-17.7-1.7 2.6-0.8 0.4 1.2-0.7 3.3q-2.3 4.7-4.6 9.4-3.9 7.8-7.7 15.5c-1 2.1-4.2 0.3-3.2-1.7z"/><path class="d" d="m458 351c27.4 1.1 54.8 4.4 81.8 9.3 27 4.9 53.7 11.5 80 19.5 6.5 2.1 13.1 4 19.6 6.3l19.4 7c3.2 1.1 6.4 2.5 9.6 3.8l9.5 4 9.5 3.9c3.2 1.3 6.2 3 9.3 4.4l18.6 9c6 3.2 12 6.6 18 10l8.9 5 8.7 5.6q8.6 5.6 17.2 11.3-9-5-17.9-10.1l-8.9-5.1-9.2-4.6c-6.1-3-12.1-6.2-18.3-9.2l-18.7-8.3c-25.1-10.7-50.6-20.4-76.8-28.2-26.1-8-52.5-14.8-79.3-20.4l-20.1-4c-6.7-1.2-13.4-2.5-20.2-3.5-13.5-2.4-27-4.2-40.7-5.7z"/><path class="d" d="m580.6 430.4c8.2-4.6 16.8-8.3 25.6-11.6 8.7-3.3 17.7-6 26.8-8.2 9.2-2.1 18.5-3.9 27.9-4.5 9.3-0.6 18.9-0.4 28 1.7-9.3 0-18.5 0.9-27.6 2.2q-3.4 0.6-6.8 1.2c-2.3 0.3-4.5 0.8-6.8 1.3q-3.4 0.6-6.8 1.4c-2.2 0.5-4.5 1-6.7 1.6l-6.7 1.6-6.7 1.7c-4.5 1.2-9 2.5-13.4 3.7z"/><path class="d" d="m499.8 285.4c9.8 6.6 19.3 13.6 28.6 20.9 9.3 7.2 18.4 14.8 27.4 22.4 8.9 7.8 17.8 15.6 26.3 23.8 8.5 8.2 16.8 16.7 24.3 25.8l-53.9-45.8c-17.8-15.4-35.6-30.8-52.7-47.1z"/><path class="d" d="m381.1 333.7c-0.2-10.4 87 6.5 88.9 19.7 1.3 8.6-88.7-0.2-88.9-19.7z"/><path class="d" d="m443.5 300.2c4.2-9.5 76.1 42.6 72.4 55.4-2.5 8.3-80.4-37.5-72.4-55.4z"/><path class="d" d="m598.6 311.4c7.4-7.3 55.7 67.2 47.6 77.7-5.3 6.9-61.5-64-47.6-77.7z"/><path class="d" d="m670.3 342.5c7.4-7.3 55.6 67.2 47.5 77.8-5.3 6.8-61.4-64-47.5-77.8z"/><path class="d" d="m531.5 251c8.8-5.6 40.4 77.3 30.3 85.9-6.6 5.6-46.8-75.4-30.3-85.9z"/><path class="d" d="m481.8 391.2c-4.8-9.2 80.7-33.2 88.4-22.4 4.9 7.1-79.4 39.7-88.4 22.4z"/><path class="d" d="m507.7 446.4c-4.8-9.2 80.7-33.1 88.3-22.2 5 7.1-79.4 39.6-88.3 22.2z"/><path class="d" d="m607.9 470.7c-8.8-5.7 53.7-68.8 65.7-63.2 7.8 3.7-49.3 73.8-65.7 63.2z"/><path class="d" d="m550.4 397.9c-1.2-10.4 87.2-2.5 90.5 10.4 2.1 8.4-88.3 9-90.5-10.4z"/><path class="d" d="m446.4 245.1c4.5-9.5 75.4 44 71.4 56.6-2.7 8.3-79.7-39-71.4-56.6z"/><path class="n" d="m720.4 709.2c-26 4.1-52.4 6-78.7 6.5-26.4 0.6-52.8-0.6-79.1-3.3-13.1-1.5-26.2-3.4-39.2-5.7-13-2.6-25.9-5.5-38.6-9.1-12.7-3.7-25.2-8.1-37.4-13.1-12.1-5.3-24-11.1-35.2-18 11.8 5.9 23.7 11.3 36.1 15.8 12.3 4.4 24.8 8.2 37.5 11.6 12.7 3.1 25.5 6 38.4 8.2q19.4 3.3 38.9 5.5c26.1 2.8 52.3 4.1 78.5 4.3 13.2 0.1 26.3 0 39.4-0.5 13.2-0.3 26.3-1.1 39.4-2.2z"/><path class="n" d="m490.4 762.8c13.8-3.5 27.5-7.2 41.1-11 13.7-3.8 27.3-7.6 40.9-11.8q20.3-6.1 40.5-12.8c13.5-4.3 26.9-9 40.4-13.5-12.8 6.3-25.8 12.1-39.1 17.1-6.6 2.7-13.4 4.9-20.1 7.3-6.7 2.3-13.5 4.5-20.3 6.6-13.7 4.1-27.4 7.7-41.3 10.8-13.9 3.1-28 5.7-42.1 7.3z"/><path class="n" d="m463.7 689.2c-9.8 3.3-19.9 5.7-30.1 7.6-10.2 2-20.5 3.4-30.9 4.4-10.3 0.8-20.7 1.2-31.1 0.8-10.4-0.4-20.8-1.6-30.9-4 10.4 0.4 20.6 0.5 30.9 0.2 10.2-0.4 20.5-1 30.7-1.9 20.5-1.8 40.9-4.4 61.4-7.1z"/><path class="n" d="m488.6 616.4c8.7 6.5 17 13.7 25 21 8 7.4 15.7 15.1 23.2 22.9 7.5 7.9 14.7 16.1 21.5 24.6 6.9 8.5 13.3 17.3 19.1 26.5l-22-24c-7.4-7.9-14.7-15.9-22.1-23.7-14.9-15.8-29.9-31.3-44.7-47.3z"/><path class="n" d="m369.8 701.2c0 0-27.7 17.4-69.6-4 44.1-16.5 69.6 4 69.6 4z"/><path class="n" d="m426.7 673.8c0 0-32.4 4.5-61.8-32.1 46.9 3 61.8 32.1 61.8 32.1z"/><path class="n" d="m637.4 712c0 0-32.4 4.5-61.8-32.1 46.9 3 61.8 32.1 61.8 32.1z"/><path class="n" d="m551 707.8c0 0-32.7 1-57.9-38.7 46.3 8.2 57.9 38.7 57.9 38.7z"/><path class="n" d="m543.8 673.3c0 0-25-21-17.6-67.4 29.2 36.8 17.6 67.4 17.6 67.4z"/><path class="n" d="m428.2 696.9c0 0-16.5 28.2-63.5 28.5 31.4-34.9 63.5-28.5 63.5-28.5z"/><path class="n" d="m506.7 701.8c0 0-21.2 24.9-67.5 17.1 37-28.9 67.5-17.1 67.5-17.1z"/><path class="n" d="m508 632.5c0 0-32.3-4.7-50.3-48.1 44.2 16 50.3 48.1 50.3 48.1z"/><path class="n" d="m597.2 732.7c0 0-28.4 16.3-69.3-6.8 44.7-14.7 69.3 6.8 69.3 6.8z"/><path class="n" d="m562.8 746.8c0 0-11 30.8-57.1 40 24.4-40.2 57.1-40 57.1-40z"/><path class="n" d="m504.7 759.1c0 0-22.5 23.7-68.4 13.3 38.6-26.8 68.4-13.3 68.4-13.3z"/><path class="d" d="m1173.4 789.4c-14-7.6-28.4-14.3-42.9-20.6-29.2-12.6-59.1-23.3-89.6-32.3l-22.8-6.5c-3.8-1.2-7.7-2.1-11.6-3l-11.5-2.8c-7.8-1.9-15.4-4-23.2-5.4q-11.7-2.3-23.4-4.8c-7.7-1.8-15.6-3-23.4-4.3l-23.6-4c-15.7-2.3-31.5-4.2-47.2-6.5q11.9 0.9 23.8 2c7.9 0.8 15.8 1.3 23.8 2.3l23.6 3.3c7.9 1.1 15.9 2.1 23.7 3.6 15.7 2.9 31.4 5.7 46.8 9.6l11.7 2.7c3.9 0.9 7.8 1.8 11.6 2.9l23.1 6.4c30.5 9.4 60.6 20.1 89.6 33.5 14.5 6.8 28.8 13.9 42.6 21.9 13.7 8.1 27.3 16.6 39.6 26.7-12.9-9.2-26.7-17.3-40.7-24.7z"/><path class="d" d="m1106.5 719.6c-12.6 3.3-25.6 5.5-38.6 6.7-6.6 0.7-13.1 0.9-19.7 1-3.2 0.1-6.5-0.1-9.8-0.2l-4.9-0.1-4.9-0.5c-13.1-0.9-26-3.9-38.4-7.6q4.8 0.6 9.6 1.4l4.8 0.7c1.7 0.2 3.3 0.3 4.9 0.5l9.6 0.9 9.7 0.4c12.9 0.4 25.8 0.2 38.6-1.2 12.9-1.1 25.7-3 38.3-5.5l9.5-2.1c3.2-0.7 6.3-1.4 9.5-2.2 6.3-1.5 12.5-3.4 18.7-5.3-11.8 5.6-24.2 9.9-36.9 13.1z"/><path class="d" d="m1013.7 779c-8.8-9.2-17.7-18.3-27-26.9-4.7-4.4-9.4-8.6-14.3-12.7-4.8-4.2-9.8-8.1-14.8-12-5.1-3.8-10.3-7.4-15.8-10.7-5.4-3.3-11.1-6.2-17-8.7 12.5 3.2 24.2 9.2 34.9 16.4 10.8 7.2 20.7 15.5 30.2 24.2 9.4 8.9 18.2 18.2 26.6 28 8.3 9.7 16.2 19.9 23.2 30.7-8.5-9.6-17.2-19-26-28.3z"/><path class="d" d="m1204.7 807.3c3.2 29.5 58.5 30.6 58.5 30.6 0 0-32.4-44.8-58.5-30.6z"/><path class="d" d="m1129.5 711.9c23.6 18.1 62.5-21.2 62.5-21.2 0 0-54.8-7.4-62.5 21.2z"/><path class="d" d="m1035.7 801.9c-8.2 28.5 42.7 50.4 42.7 50.4 0 0-13.2-53.8-42.7-50.4z"/><path class="d" d="m1172.9 788.7c-17.2 24.3 23.6 61.7 23.6 61.7 0 0 5.3-55.1-23.6-61.7z"/><path class="d" d="m1173.6 787.3c20.2 21.8 65.1-10.5 65.1-10.5 0 0-52.8-16.4-65.1 10.5z"/><path class="d" d="m1120.4 762.6c-17.1 24.2 23.6 61.6 23.6 61.6 0 0 5.3-55-23.6-61.6z"/><path class="d" d="m1121.1 761.2c20.2 21.7 65.1-10.5 65.1-10.5 0 0-52.8-16.5-65.1 10.5z"/><path class="d" d="m917.3 706.5c-8.9 28.3 41.4 51.4 41.4 51.4 0 0-11.8-54-41.4-51.4z"/><path class="d" d="m917.5 704.9c26 14.5 58.8-29.9 58.8-29.9 0 0-55.3 0.5-58.8 29.9z"/><path class="d" d="m1009.8 771.9c-23.9 17.6 3.1 65.9 3.1 65.9 0 0 22.3-50.6-3.1-65.9z"/><path class="d" d="m1010.9 770.8c12.4 26.9 65.2 10.4 65.2 10.4 0 0-45-32.2-65.2-10.4z"/><path class="d" d="m970.4 736.2c-23.9 17.7 3.1 66 3.1 66 0 0 22.3-50.7-3.1-66z"/><path class="d" d="m971.5 735.1c12.3 27 65.1 10.4 65.1 10.4 0 0-45-32.2-65.1-10.4z"/><path class="d" d="m1069.3 725.1c3.2 29.5 58.5 30.6 58.5 30.6 0 0-32.4-44.8-58.5-30.6z"/><path class="d" d="m1068.9 723.6c29.6 2.9 41.9-51 41.9-51 0 0-50.5 22.6-41.9 51z"/><path class="n" d="m1243.3 199.1c-8.9 10.6-17.2 21.8-25.2 33.2-16 22.8-30.4 46.7-43.5 71.3l-9.6 18.5c-1.7 3-3.1 6.2-4.6 9.4l-4.5 9.4c-2.9 6.3-6.1 12.5-8.7 19q-4 9.6-8.2 19.2c-2.9 6.4-5.3 12.9-7.8 19.4l-7.5 19.5c-4.8 13.1-9.2 26.4-14 39.5q2.9-10.1 6-20.1c2-6.7 3.9-13.4 6.1-20.1l7-19.7c2.3-6.6 4.5-13.2 7.3-19.7 5.1-13 10.4-26 16.4-38.6l4.4-9.5c1.5-3.2 2.9-6.4 4.5-9.5l9.6-18.7c13.4-24.5 27.9-48.6 44.5-71.1 8.4-11.2 17-22.3 26.3-32.7 9.4-10.4 19.1-20.6 29.9-29.4-10.2 9.5-19.5 19.9-28.4 30.7z"/><path class="n" d="m1171.6 244.2c0.7 11.5 0.2 23-1 34.4-0.6 5.8-1.6 11.4-2.6 17.1-0.5 2.8-1.3 5.6-1.9 8.4l-1 4.2-1.3 4.1c-3 11.1-7.9 21.6-13.2 31.7q1.4-4.1 2.9-8.1l1.4-4c0.5-1.3 0.8-2.7 1.2-4.1l2.5-8.1 2.1-8.2c2.6-11 4.7-22.2 5.8-33.4 1.3-11.2 1.9-22.6 1.9-33.9v-8.5c-0.1-2.8-0.2-5.7-0.3-8.5-0.2-5.7-0.7-11.4-1.3-17.1 2.8 11.1 4.3 22.6 4.8 34z"/><path class="n" d="m1206.4 334.4c-9.5 6-18.9 12-28 18.5-4.5 3.2-9 6.6-13.4 10-4.4 3.4-8.6 7-12.8 10.7-4.2 3.7-8.2 7.6-12 11.7-3.8 4-7.3 8.4-10.5 13 5-10.1 12.2-19.1 20.3-27.1 8-8 16.9-15 26-21.6 9.3-6.5 18.9-12.5 28.7-18 9.9-5.4 20-10.4 30.5-14.6-9.7 5.7-19.3 11.5-28.8 17.4z"/><path class="n" d="m1264.2 175.3c25.9 2.4 36.6-44.9 36.6-44.9 0 0-44.2 20-36.6 44.9z"/><path class="n" d="m1169 223.2c19.7-17.1-7.2-57.5-7.2-57.5 0 0-16 45.8 7.2 57.5z"/><path class="n" d="m1229.8 319.5c23.1 12.1 50.8-27.7 50.8-27.7 0 0-48.4 1.8-50.8 27.7z"/><path class="n" d="m1242.7 199.4c17.8 19 57.1-9.5 57.1-9.5 0 0-46.4-14.2-57.1 9.5z"/><path class="n" d="m1241.6 198.5c22.2-13.5 2.4-57.8 2.4-57.8 0 0-23.4 42.5-2.4 57.8z"/><path class="n" d="m1211 239.9c17.8 19 57.1-9.5 57.1-9.5 0 0-46.4-14.2-57.1 9.5z"/><path class="n" d="m1209.9 239c22.2-13.5 2.4-57.8 2.4-57.8 0 0-23.4 42.5-2.4 57.8z"/><path class="n" d="m1127.1 404.5c22.8 12.6 51.5-26.5 51.5-26.5 0 0-48.5 0.6-51.5 26.5z"/><path class="n" d="m1125.8 404c17-19.7-15.4-55.7-15.4-55.7 0 0-9.3 47.6 15.4 55.7z"/><path class="n" d="m1199.5 336.5c11 23.6 57.2 8.9 57.2 8.9 0 0-39.5-28-57.2-8.9z"/><path class="n" d="m1198.8 335.4c25.3-5.9 20.4-54.2 20.4-54.2 0 0-35.6 33-20.4 54.2z"/><path class="n" d="m1162 364.1c10.9 23.7 57.2 9 57.2 9 0 0-39.6-28.1-57.2-9z"/><path class="n" d="m1161.2 363c25.3-5.9 20.4-54.1 20.4-54.1 0 0-35.6 32.9-20.4 54.1z"/><path class="n" d="m1169.8 277.2c25.9 2.4 36.6-44.9 36.6-44.9 0 0-44.2 20-36.6 44.9z"/><path class="n" d="m1168.5 277.3c7.6-24.9-36.5-45-36.5-45 0 0 10.5 47.4 36.5 45z"/><path class="r" d="m1136.2 435.8c-4.8 22.1 128.5 6.4 204.7-87.1 14.3-17.6-191.2 25.7-204.7 87.1z"/><path class="d" d="m1321.9 355.9c-62.6 23.7-126.8 48.1-184.9 81.4-1.8 1.1-3.5-1.9-1.6-3 58.4-33.4 122.8-57.9 185.7-81.7 2-0.7 2.8 2.5 0.8 3.3z"/><path class="d" d="m1282.5 390.4q-23.3 0-46.6-0.1c-1.2 0-2.2-1.5-1.4-2.5q6.8-9.8 13.7-19.6c1.2-1.8 4.1 0 2.9 1.7q-6.9 9.8-13.7 19.6-0.7-1.3-1.4-2.6 23.2 0.1 46.5 0.1c2.2 0.1 2.1 3.4 0 3.4z"/><path class="d" d="m1204.5 385.5q-11.7 14.6-23.4 29.2-0.6-1.5-1.2-2.9 15.1 1.7 30.2 3.5c2.1 0.2 2.1 3.6-0.1 3.4q-15-1.8-30.1-3.6c-1.6-0.1-2.1-1.7-1.2-2.9q11.7-14.6 23.4-29.1c1.4-1.7 3.7 0.7 2.4 2.4z"/><path class="s" d="m1194.6 359c5.5 23.4 177.3-70.3 204.2-198.9 6-28.6-220.6 129.9-204.2 198.9z"/><path class="t" d="m1244.7 309.3q-18.6 19.9-36.9 40.2c-12.1 13.6-24.1 27.2-35.8 41.2-11.7 13.9-23.2 27.9-34.1 42.4-5.5 7.3-10.8 14.6-16 22-2.5 3.8-5.1 7.5-7.5 11.3l-7.2 11.5c-9.3 15.5-17.7 31.6-25.5 48q-11.8 24.5-21.7 50c-6.7 16.9-12.7 34.1-18.2 51.5 8.4-35.5 20.2-70.3 35.1-103.7 7.4-16.8 15.7-33.1 24.8-49 4.8-7.9 9.6-15.7 14.8-23.3 5.1-7.6 10.5-15 16-22.3 11.1-14.6 22.7-28.8 34.6-42.6 12-13.8 24.2-27.3 36.9-40.5 25-26.5 51.2-52 78.4-76.4-12.7 13.2-25.3 26.3-37.7 39.7z"/><path class="d" d="m1388.4 170.9c-25.6 23.2-50.9 46.8-75.9 70.7-39.1 37.3-79.1 74.9-113.8 116.5-1.4 1.7-3.7-0.8-2.3-2.4 34.7-41.7 74.6-79.2 113.8-116.6 25-23.8 50.2-47.5 75.8-70.7 1.6-1.5 4 1 2.4 2.5z"/><path class="d" d="m1355.2 230.5q-23.5 7.5-47 14.9c-1.3 0.4-2.4-0.9-2.1-2.1q4-15 8-30c0.6-2.1 3.9-1.2 3.3 0.9q-4 15-8 30-1-1-2.1-2.1 23.5-7.4 47-14.9c2.1-0.6 2.9 2.7 0.9 3.3z"/><path class="d" d="m1267.1 252.8q-10.1 24.7-20.3 49.3c-1.1 2.6-2.3 5.2-3.2 7.9 0.6-1.7-2.7-0.6-0.2-1.9 1.4-0.7 4.4-0.4 5.9-0.5q13.3-1.1 26.5-2.3c2.2-0.2 2.1 3.2 0 3.4q-17 1.5-34 2.9c-1 0.1-2-1.2-1.6-2.1q11.8-28.8 23.7-57.6c0.8-2 4.1-1.1 3.2 0.9z"/><path class="u" d="m1106.7 164.8c12 3.3 33.7 89.7 35.6 150.1 2 60.5-35.8 182.4-52.2 173.7-74.6-39.8 4.7-327.1 16.6-323.8z"/><path class="d" d="m1088.4 488.5c7.2-70 13.5-140.3 17-210.6 1.1-21.6 2-43.3 1.3-65-0.1-2.2 3.3-2.2 3.4 0 1.2 41.7-2.1 83.7-5.1 125.3-3 41.5-6.7 82.9-10.6 124.2q-1.3 13.1-2.6 26.2c-0.3 2.1-3.6 2.1-3.4-0.1z"/><path class="d" d="m1127.7 376.8q-15.2 26.2-30.4 52.5c-0.5 0.9-2 1.1-2.7 0.3q-10.6-12.7-21.2-25.4c-1.4-1.7 1.1-4.1 2.5-2.4q8.2 9.9 16.5 19.8c1 1.2 3.2 3 3.7 4.4 0.9 2.5-0.4-0.2-1.5 1.2 1.6-2.1 2.7-4.6 4-6.8q13.1-22.7 26.2-45.4c1.1-1.9 4-0.1 2.9 1.8z"/><path class="d" d="m1082.5 286.7q11 28.8 22 57.6-1.6-0.2-3.1-0.4 10.9-18.3 21.8-36.5c1.1-1.9 4-0.2 2.9 1.7q-10.9 18.2-21.8 36.5c-0.8 1.4-2.6 0.8-3.1-0.5q-11-28.8-22-57.5c-0.7-2.1 2.5-2.9 3.3-0.9z"/><path class="v" d="m802 726.6c1.4-17.6 97.5 24.5 133.2 111.8 6.7 16.4-137.1-62.8-133.2-111.8z"/><path class="d" d="m921.3 831c-41.6-32.1-84.2-65.1-120.3-103.5-1.1-1.2 0.8-3 1.9-1.8 35.9 38.2 78.3 71.1 119.7 103 1.4 1 0 3.3-1.3 2.3z"/><path class="d" d="m900.3 796.4q-17.4-5.2-34.9-10.5 0.9-0.8 1.7-1.6 2.9 8.9 5.8 17.8c0.5 1.6-2.1 2.2-2.6 0.6q-2.9-8.9-5.8-17.7c-0.3-1 0.8-1.9 1.7-1.6q17.4 5.2 34.8 10.5c1.6 0.5 0.9 3-0.7 2.5z"/><path class="d" d="m839.3 781.1q-5.5-13.6-10.9-27.2c-0.4-1.1 0.3-2.1 1.5-1.9q11.7 2.2 23.4 4.3c1.6 0.3 0.9 2.8-0.8 2.5q-11.6-2.1-23.3-4.2 0.8-1 1.5-1.9 5.4 13.5 10.9 27.1c0.6 1.6-1.7 2.9-2.3 1.3z"/><path class="w" d="m828.1 797.4c9.5-16.3 116.6 93 107.4 195.3-2 22.8-135.4-147.5-107.4-195.3z"/><path class="x" d="m873.4 884.2c-14.8-24.4-28.5-49.4-41.2-74.9-6.5-12.8-12.5-25.7-18.3-38.8-5.8-13-11.3-26.3-16.2-39.7-2.5-6.7-4.8-13.5-6.9-20.3-2.2-6.9-4-13.8-5.7-20.8-3.3-14-5.8-28.1-7.5-42.3-3.4-28.4-4.3-57.1-2.5-85.6 0.1 14.3 0.7 28.5 1.9 42.7q1.6 21.3 4.7 42.3c2.2 14 4.8 28 8.2 41.7l2.8 10.3c0.9 3.4 2 6.7 3 10.1 2.1 6.8 4.5 13.4 6.9 20.1 4.9 13.3 10.3 26.5 15.8 39.5 5.6 13.1 11.5 26.1 17.5 39q9 19.3 18.4 38.5c6.2 12.8 12.7 25.5 19.1 38.2z"/><path class="d" d="m927.9 983.6c-13.9-23.3-27.4-46.7-40.6-70.2-20.8-36.9-42.2-74.1-58.6-113.1-0.7-1.6 1.6-2.9 2.3-1.3 16.5 39 37.8 76.2 58.6 113.1 13.2 23.5 26.7 47 40.6 70.2 0.8 1.4-1.5 2.7-2.3 1.3z"/><path class="d" d="m917.5 932.3q-15.8-10.9-31.7-21.8 1-0.6 2-1.1-0.4 12.1-0.8 24.3c-0.1 1.7-2.7 1.6-2.7-0.1q0.4-12.1 0.9-24.3c0-0.9 1.1-1.7 2-1.1q15.8 10.9 31.7 21.9c1.4 0.9 0.1 3.2-1.4 2.2z"/><path class="d" d="m855.5 893.3q-2.3-24.3-4.6-48.5c-0.1-0.8 1-1.5 1.7-1.2q12.4 4.9 24.8 9.9c1.5 0.6 0.8 3.2-0.8 2.5q-9.6-3.8-19.2-7.7c-1.2-0.4-3.5-0.9-4.4-1.7-1.5-1.5 0.7 0 0.6-1.4 0.1 2.2 0.4 4.4 0.6 6.6q2 20.8 4 41.5c0.1 1.7-2.5 1.6-2.7 0z"/><path class="y" d="m779.5 676.6c14.3-2.8 14.7 97.1-0.5 141.8-15.3 44.8-51.2 104.4-60.9 104.2-9.7-0.3-3.4-233.2 61.4-246z"/><path class="d" d="m780.8 677q-2 10.1-4.1 20.2c-6.4 31.8-13.1 63.6-20.3 95.3-7.2 31.8-14.3 63.9-24.8 94.9-0.5 1.6-3.1 0.8-2.5-0.8 5.4-16.1 9.7-32.5 13.8-48.9 13.4-53.4 24.8-107.4 35.3-161.4 0.4-1.7 2.9-0.9 2.6 0.7z"/><path class="d" d="m779.6 769.5q-4.6-20-9.3-39.9c-0.5-2-0.7-4.1-1.4-6 0.5 1.3 2.1-0.5 0.8 1.2-0.7 0.9-2.7 1.8-3.7 2.4q-8.5 5.6-16.9 11.1c-1.4 0.9-2.7-1.4-1.3-2.3q10.8-7.1 21.7-14.2c0.7-0.5 1.7 0 1.9 0.8q5.4 23.1 10.8 46.2c0.4 1.7-2.2 2.3-2.6 0.7z"/><path class="d" d="m725.6 824.5q14.7-19 29.5-38.1c0.7-0.8 2.1-0.8 2.4 0.4q4 16.1 8 32.3c0.4 1.6-2.1 2.3-2.5 0.6q-4-16.1-8-32.3 1.2 0.2 2.4 0.4-14.8 19-29.6 38.1c-1 1.3-3.3-0.1-2.2-1.4z"/><path class="z" d="m533.1 854c19.3 0.8-22.7 107.4-116.5 149.9-17.6 8 62.9-152.2 116.5-149.9z"/><path class="d" d="m424.2 988.4c33.3-46.6 67.5-94.5 107.8-135.4 1.3-1.3 3.4 0.7 2.1 2-40.1 40.7-74.3 88.4-107.4 134.8-1.1 1.5-3.6 0.1-2.5-1.4z"/><path class="d" d="m461 964.1q5-19.2 10-38.4 0.9 0.8 1.8 1.7-9.5 3.5-19.1 7c-1.7 0.7-2.5-2.1-0.8-2.7q9.6-3.6 19.1-7.1c1.1-0.4 2.1 0.8 1.8 1.8q-5 19.2-10 38.4c-0.5 1.8-3.3 1.1-2.8-0.7z"/><path class="d" d="m475.2 896.9q14.6-6.5 29.1-12.9c1.2-0.6 2.4 0.2 2.2 1.5q-1.8 12.9-3.7 25.7c-0.2 1.8-3 1.1-2.8-0.7q1.9-12.9 3.7-25.7 1.1 0.8 2.2 1.6-14.6 6.5-29.2 13c-1.7 0.7-3.2-1.7-1.5-2.5z"/><path class="A" d="m457 885.4c18.1 9.7-96.7 131.1-208.7 125.3-24.9-1.3 155.3-153.8 208.7-125.3z"/><path class="B" d="m364.1 938.4c26-17.1 52.7-33.1 80.1-48.1 13.6-7.5 27.5-14.6 41.4-21.5 14.1-6.9 28.3-13.4 42.7-19.4 7.2-2.9 14.5-5.7 21.9-8.3 7.4-2.7 14.9-4.9 22.4-7.1 15.2-4.1 30.5-7.4 45.9-9.9 30.8-4.9 62.1-7.1 93.2-6.3-15.6 0.7-31 1.9-46.5 3.8q-23.1 2.7-45.9 7c-15.2 2.9-30.3 6.3-45.2 10.6l-11 3.5c-3.7 1.1-7.3 2.4-11 3.7-7.3 2.6-14.5 5.4-21.6 8.4-14.3 5.8-28.5 12.2-42.5 18.9-14 6.6-27.9 13.6-41.7 20.6q-20.8 10.6-41.3 21.7c-13.7 7.3-27.3 14.9-40.9 22.4z"/><path class="d" d="m258 1002c24.7-16.1 49.7-31.8 74.9-47.3 39.3-24.1 79-49 120.9-68.5 1.7-0.8 3.2 1.6 1.5 2.4-41.9 19.6-81.6 44.4-120.9 68.6-25.1 15.5-50.2 31.1-74.9 47.2-1.6 1-3.1-1.4-1.5-2.4z"/><path class="d" d="m313.4 988.6q11.3-17.8 22.6-35.5 0.6 1 1.3 2.1-13.3 0-26.6 0.1c-1.9 0-1.9-2.9 0-2.9q13.2 0 26.5-0.1c1.1 0 1.9 1.2 1.3 2.2q-11.3 17.7-22.5 35.5c-1 1.5-3.5 0.2-2.6-1.4z"/><path class="d" d="m353.5 919.3q26.3-3.5 52.7-7c0.9-0.1 1.7 1 1.4 1.8q-4.9 13.7-9.8 27.4c-0.6 1.7-3.4 1-2.8-0.7q3.8-10.7 7.6-21.4c0.5-1.2 0.9-3.8 1.7-4.8 1.6-1.7 0 0.7 1.6 0.6-2.4 0.2-4.8 0.6-7.2 1q-22.6 3-45.2 6c-1.8 0.2-1.8-2.6 0-2.9z"/><path class="C" d="m586.6 827.4c3.7 15.5-105.2 20.1-154.6 5.3-49.5-14.8-116-51.5-116.2-62.1-0.1-10.5 254.2-13.4 270.8 56.8z"/><path class="d" d="m586.3 828.8q-11.1-1.8-22.2-3.6c-35-5.7-69.9-11.7-104.8-18.2-34.9-6.6-70.3-13-104.5-23.1-1.8-0.5-1.1-3.3 0.7-2.8 17.8 5.3 35.9 9.2 54 13.1 58.8 12.4 118.1 22.5 177.5 31.8 1.8 0.3 1.1 3.1-0.7 2.8z"/><path class="d" d="m485.4 831.4q21.5-5.9 43.1-11.9c2.1-0.5 4.5-0.9 6.5-1.7-1.4 0.5 0.6 2.2-1.3 0.9-1.1-0.7-2.1-2.9-2.8-4q-6.4-9-12.8-17.9c-1-1.5 1.4-3 2.5-1.5q8.2 11.5 16.4 23c0.5 0.8 0 1.9-0.9 2.1q-24.9 6.9-49.9 13.7c-1.8 0.5-2.6-2.2-0.8-2.7z"/><path class="d" d="m423.1 774.7q21.4 15.3 42.8 30.6c0.9 0.7 1 2.3-0.3 2.7q-17.5 5-34.9 10c-1.8 0.6-2.6-2.2-0.8-2.7q17.4-5.1 34.9-10.1-0.2 1.3-0.3 2.7-21.4-15.4-42.8-30.7c-1.5-1.1-0.1-3.6 1.4-2.5z"/><path class="D" d="m1116.8 109l-188.3 399.8q-1-0.3-1.9-0.8c-25.1-12.9-64.9-155.5-40.7-188.3 24.1-32.7 36.1 32.3 36.1 32.3 0 0 43.9-163.1 71-169.7 27.1-6.6 29 35.9 29 35.9 0 0 53-120.5 94.8-109.2z"/><path class="E" d="m928.5 508.8l188.3-399.8q0.6 0.2 1.3 0.4c41.9 14.2-59.6 246.1-59.6 246.1 0 0 32.5-21.3 46.5-4.3 21.3 25.7-133 172.9-176.5 157.6z"/><path class="c" d="m1107.3 142.6q-8.6 18-17.3 36c-53.2 110.4-105.6 221.3-161.6 330.3-1.2 2.5-5 0.5-3.7-1.9 13.4-26.2 26.4-52.5 39.4-78.9 47-95.6 93.3-191.5 139.5-287.4 1.1-2.5 4.9-0.5 3.7 1.9z"/><path class="c" d="m905.5 355.9c4.1 40.6 13.4 87.4 38.2 120.5 1.6 2.2-1.9 4.5-3.6 2.3-25.3-33.8-34.7-81.2-38.8-122.6-0.3-2.7 3.9-2.9 4.2-0.2z"/><path class="c" d="m1077.5 369.2c-32 24-68.7 47.4-107.6 57.7-2.6 0.7-3.9-3.3-1.3-4 38.6-10.2 74.9-33.5 106.6-57.2 2.2-1.7 4.5 1.9 2.3 3.5z"/><path class="c" d="m1003.3 221.6c-4.9 41.7-10.5 90.5 1.7 131.2 0.8 2.6-3.3 3.9-4 1.3-12.5-41.6-6.8-90.8-1.8-133.4 0.3-2.7 4.4-1.8 4.1 0.9z"/><path class="F" d="m863.6 63.8l-42.1 337.1q-0.8 0-1.6-0.1c-21.4-3.5-84.5-98.1-74.7-127.9 9.8-29.7 34.1 15 34.1 15 0 0-6.8-129.7 11.4-141 18.2-11.2 29.7 19.4 29.7 19.4 0 0 10-100.8 43.2-102.5z"/><path class="G" d="m821.5 400.9l42.1-337.1q0.5 0 1.1 0c34 0.4 15.2 194 15.2 194 0 0 18.6-23.3 32.9-14.2 21.8 13.7-55.9 158.1-91.3 157.3z"/><path class="c" d="m864.7 90.6q-2 15.3-4 30.5c-12.6 93.4-24.3 186.9-39.2 279.9-0.4 2.1-3.6 1.6-3.2-0.5 3.5-22.3 6.7-44.7 9.9-67.1 11.6-81 22.5-162.1 33.3-243.3 0.3-2 3.5-1.5 3.2 0.5z"/><path class="c" d="m768.2 294.7c12.7 28.7 30.6 60.6 56.7 78.9 1.7 1.2-0.4 3.7-2.1 2.5-26.6-18.6-44.7-51-57.6-80.2-0.9-2 2.2-3.1 3-1.2z"/><path class="c" d="m897 263.3c-17.6 25.2-38.8 51.1-64.8 67.9-1.7 1.2-3.7-1.5-1.9-2.6 25.7-16.7 46.8-42.4 64.2-67.3 1.2-1.7 3.7 0.3 2.5 2z"/><path class="c" d="m807.6 173.2c6.4 31.6 13.9 68.6 32.5 95.4 1.2 1.8-1.4 3.7-2.6 1.9-19-27.3-26.6-64.7-33.1-96.9-0.4-2.1 2.8-2.4 3.2-0.4z"/><path class="H" d="m401.3 600.2l327.8 89q-0.1 0.8-0.4 1.6c-6.4 20.7-109 69.9-137 56-28-13.9 19.6-31.7 19.6-31.7 0 0-129.4-11.4-138-31-8.6-19.6 23.4-26.8 23.4-26.8 0 0-98.4-24-95.4-57.1z"/><path class="I" d="m729.1 689.2l-327.8-89q0-0.5 0.1-1c5.2-33.7 194.2 12.1 194.2 12.1 0 0-20.4-21.7-9.5-34.6 16.7-19.6 148.7 77.6 143 112.5z"/><path class="c" d="m428 602.9q14.8 4.1 29.6 8.3c90.6 25.5 181.6 50.3 271.6 78 2 0.7 1.1 3.8-0.9 3.2-21.6-6.7-43.4-13-65.1-19.3-78.6-22.8-157.4-45-236.2-67.1-2-0.6-1-3.7 1-3.1z"/><path class="c" d="m616.5 727.1c30.1-8.5 64.3-21.8 86.1-45.1 1.4-1.5 3.6 0.9 2.2 2.4-22.3 23.7-56.8 37.2-87.6 45.8-2 0.6-2.7-2.6-0.7-3.1z"/><path class="c" d="m603.5 595.1c22.4 21 45.1 45.6 58.1 73.7 0.9 1.9-2 3.4-2.9 1.6-12.9-27.9-35.3-52.3-57.6-73.1-1.5-1.4 0.9-3.6 2.4-2.2z"/><path class="c" d="m501.7 671c32.2-1.8 69.9-4.1 99.1-18.8 1.8-0.9 3.3 1.9 1.5 2.9-29.8 15-67.8 17.3-100.7 19.2-2.1 0.1-2-3.1 0.1-3.3z"/><path class="J" d="m1378.6 424l-488.2 225.4c-6.5-35.4 76.9-177.4 113.3-171.1 36.1 6.2 4.8 55.7 2.5 59.3 4.2-5 98.2-115.2 126.8-107.3 28.8 8-4.1 52.1-5 53.2 2.1-1.5 119-88.6 136.8-77.1 17.9 11.6-11.6 50.3-11.6 50.3 0 0 108.9-52.7 125.4-32.7z"/><path class="K" d="m891.3 652.5q-0.6-1.4-0.9-3.1l488.2-225.4q0.7 0.9 1.2 2c11.2 25.1-126.3 92.3-126.3 92.3 0 0 49.2-18 55.9 7.2 6.4 24-121.1 56.5-133.6 59.6 6.9-1.4 47.1-8.7 50.6 14.6 3.8 25.4-161.1 47.6-161.1 47.6 0 0 43.3 2 40.1 25.8-4.2 30.4-202.8 4.7-214.1-20.6z"/><path class="c" d="m1350.7 438.8q-28.5 13.3-57 26.6-201 94-402 188c-3.3 1.6-5.6-3.6-2.3-5.1q28.5-13.3 57-26.7 200.9-94 401.9-188c3.3-1.5 5.7 3.6 2.4 5.2z"/><path class="c" d="m1001.6 502.3q-37.7 67.4-75.4 134.9c-1.7 3.2-6.4-0.1-4.6-3.3q37.7-67.4 75.3-134.8c1.8-3.2 6.4 0.1 4.7 3.2z"/><path class="c" d="m1087.4 667.5q-69.9-20.3-139.8-40.6c-3.6-1-1.6-6.3 1.9-5.3q70 20.3 139.9 40.6c3.5 1 1.5 6.3-2 5.3z"/><path class="c" d="m1119.8 455q-52.3 70.3-104.5 140.7c-2.2 2.9-6.8-0.4-4.6-3.3q52.2-70.3 104.5-140.7c2.1-2.9 6.8 0.4 4.6 3.3z"/><path class="c" d="m1203.8 596.6q-75.8-9.6-151.6-19.3c-3.6-0.4-3-6.1 0.6-5.6q75.8 9.6 151.6 19.3c3.6 0.4 3 6.1-0.6 5.6z"/><path class="c" d="m1248.9 423.8q-59.6 58.9-119.2 117.8c-2.6 2.6-6.2-1.8-3.6-4.3q59.5-58.9 119.1-117.8c2.6-2.6 6.2 1.8 3.7 4.3z"/><path class="c" d="m1277.2 530q-53.6-3.6-107.2-7.1c-3.7-0.3-3.1-5.9 0.5-5.7q53.6 3.6 107.2 7.2c3.7 0.2 3.1 5.9-0.5 5.6z"/><path class="L" d="m712.3 247.5c53.2 113 44.7 251.9 29.7 257.9-8.7 3.5-46-82.4-88.7-151.2-32.2-52-145.1-195.9-68.1-225.9 26.9-10.5 74.2 6.6 127.1 119.2z"/><path class="c" d="m599.1 162.1c44.8 63.8 79.2 136.9 107.3 209.3 15.3 39.4 28.4 79.7 39 120.6 0.6 2.1-2.6 3.5-3.2 1.3-21.3-81.7-52.2-160.8-91-235.7-16.6-31.9-34.2-63.9-54.9-93.4-1.3-1.8 1.5-3.9 2.8-2.1z"/><path class="c" d="m593.4 190.9q18 9.9 36 19.7-1.2 0.7-2.4 1.4 1.8-22.1 3.6-44.2c0.2-2.3 3.6-1.8 3.5 0.4q-1.8 22.2-3.6 44.3c-0.1 1-1.5 1.9-2.4 1.3q-18-9.8-36-19.7c-2-1-0.6-4.3 1.3-3.2z"/><path class="c" d="m613.7 227.4q18 9.9 36 19.7-1.2 0.7-2.4 1.4 1.8-22.1 3.6-44.2c0.2-2.3 3.6-1.8 3.5 0.4q-1.8 22.2-3.6 44.3c-0.1 1-1.5 1.9-2.4 1.3q-18-9.8-36-19.7c-2-1-0.6-4.3 1.3-3.2z"/><path class="c" d="m634.8 265.7q17.6 10.4 35.3 20.9-1.4 0.5-2.8 1.1 2.5-22 5-44.1c0.3-2.2 3.7-1.7 3.5 0.5q-2.5 22-5 44.1c-0.2 1.4-1.8 1.8-2.8 1.1q-17.7-10.4-35.4-20.8c-1.9-1.2 0.3-3.9 2.2-2.8z"/><path class="c" d="m654.8 302.5q16.7 11.9 33.4 23.9-1.4 0.5-2.8 1.1 4.4-21.7 8.8-43.5c0.5-2.2 3.9-1.7 3.5 0.5q-4.4 21.7-8.9 43.5c-0.2 1.3-1.6 1.9-2.7 1.1q-16.7-11.9-33.4-23.9c-1.8-1.3 0.3-4 2.1-2.7z"/><path class="c" d="m671.3 341.4q16.6 11.9 33.3 23.8-1.4 0.6-2.7 1.2 4.4-21.7 8.8-43.5c0.4-2.2 3.9-1.7 3.4 0.5q-4.4 21.7-8.8 43.5c-0.3 1.3-1.7 1.9-2.8 1.1q-16.7-11.9-33.4-23.9c-1.8-1.3 0.3-4 2.2-2.7z"/><path class="c" d="m686.3 380.5q16.2 11.6 32.5 23.2-1.4 0.6-2.8 1.2 4.3-21.2 8.6-42.3c0.4-2.2 3.9-1.7 3.4 0.5q-4.3 21.1-8.6 42.2c-0.2 1.3-1.6 2-2.8 1.2q-16.2-11.6-32.4-23.2c-1.8-1.3 0.3-4.1 2.1-2.8z"/><path class="c" d="m703.8 418.9q13.7 10.3 27.4 20.6-1.4 0.6-2.8 1.2 4.1-18.1 8.3-36.1c0.5-2.2 4-1.7 3.5 0.5q-4.2 18-8.4 36.1c-0.3 1.2-1.6 1.9-2.7 1.1q-13.7-10.3-27.4-20.6c-1.8-1.4 0.4-4.1 2.1-2.8z"/><path class="c" d="m719.6 451.3q10.2 9.8 20.5 19.5-1.3 0.4-2.7 0.8 5.1-14.5 10.3-28.9c0.7-2.1 3.9-0.8 3.2 1.3q-5.1 14.5-10.3 28.9c-0.3 1-1.8 1.5-2.6 0.7q-10.3-9.8-20.5-19.5c-1.7-1.6 0.4-4.3 2.1-2.8z"/><path class="M" d="m829.1 387.9c-20.1 66.8-82.7 117.7-86.2 116.6-8.3-2.4 18-47.3 24-89.2 5.2-36.3 2-160.6 48-154.8 28.4 3.6 32.9 65.5 14.2 127.4z"/><path class="c" d="m818 274.9c-6.3 77.3-30 157.4-67.5 225.2-1.1 1.9-4.3 0.6-3.3-1.4 37.5-67.5 61-147.1 67.3-224.3 0.2-2.3 3.7-1.8 3.5 0.5z"/><path class="c" d="m804.4 284.6q4.8 11.1 9.6 22.2-1.5-0.2-3-0.4 8.8-9.6 17.7-19.3c1.5-1.6 4.3 0.5 2.8 2.1q-8.9 9.7-17.7 19.3c-0.9 1-2.5 0.9-3-0.4q-4.8-11.1-9.7-22.2c-0.9-2.1 2.4-3.4 3.3-1.3z"/><path class="c" d="m801.4 313.3q3.9 11.5 7.7 23-1.3-0.4-2.6-0.8 9.6-8.9 19.2-17.7c1.7-1.5 3.8 1.2 2.1 2.7q-9.6 8.9-19.2 17.8c-0.8 0.7-2.4 0.3-2.7-0.7q-3.9-11.5-7.7-23c-0.7-2.1 2.5-3.4 3.2-1.3z"/><path class="c" d="m796 342.3q3.5 11.6 7 23.2-1.4-0.4-2.7-0.7 9.9-8.6 19.8-17.2c1.7-1.4 3.8 1.4 2.1 2.8q-9.9 8.6-19.8 17.1c-0.8 0.7-2.4 0.3-2.7-0.7q-3.5-11.6-6.9-23.2c-0.7-2.1 2.5-3.4 3.2-1.3z"/><path class="c" d="m790.3 370.1q2.5 11.8 4.9 23.7-1.3-0.6-2.7-1.2 10.6-7.6 21.2-15.3c1.8-1.3 3.9 1.5 2.1 2.8q-10.6 7.6-21.2 15.3c-1.2 0.8-2.5 0.1-2.8-1.2q-2.5-11.8-4.9-23.7c-0.5-2.2 3-2.6 3.4-0.4z"/><path class="c" d="m779.8 399.5q2.4 11.8 4.9 23.7-1.4-0.6-2.8-1.2 10.6-7.7 21.2-15.3c1.9-1.3 4 1.4 2.1 2.8q-10.6 7.6-21.2 15.3c-1.1 0.8-2.5 0.1-2.8-1.2q-2.4-11.9-4.9-23.7c-0.5-2.2 3-2.6 3.5-0.4z"/><path class="c" d="m770.8 429.3q2.1 10.1 4.2 20.2-1.3-0.5-2.7-1.1 9-6.6 18.1-13.1c1.8-1.3 3.9 1.5 2.1 2.8q-9.1 6.5-18.1 13c-1.2 0.9-2.5 0.2-2.8-1.1q-2.1-10.1-4.2-20.3c-0.5-2.2 3-2.6 3.4-0.4z"/><path class="c" d="m762.8 452.8q1.6 8.7 3.2 17.5-1.4-0.6-2.8-1.2 7.9-5.4 15.9-10.8c1.8-1.3 3.9 1.5 2.1 2.7q-7.9 5.4-15.9 10.8c-1.1 0.8-2.5 0.2-2.8-1.1q-1.5-8.8-3.1-17.5c-0.4-2.2 3-2.6 3.4-0.4z"/><path class="c" d="m756.5 473.2q0.5 7.2 0.9 14.3-1.2-0.7-2.3-1.4 6.8-3.6 13.6-7.2c2-1.1 3.3 2.2 1.3 3.2q-6.8 3.6-13.6 7.2c-1 0.5-2.4-0.3-2.4-1.4q-0.5-7.1-1-14.3c-0.1-2.2 3.4-2.6 3.5-0.4z"/><path class="N" d="m742.9 504.5c-2.7 10.4-106-35-172.5-93.3-66.5-58.3-93-109.4-69.5-125.8 34.5-24 111.2 73.7 134.1 102.3 22.9 28.5 110.9 105.3 107.9 116.8z"/><path class="c" d="m533.9 311.9c17.1 23.4 36.7 45.1 56.8 65.9 45.3 47.2 96.2 89.6 153.3 121.7 1.9 1.1 0.6 4.4-1.4 3.3-55.8-31.5-105.7-72.6-150.4-118.4-21.6-22.1-42.8-45.4-61.1-70.4-1.3-1.8 1.4-3.9 2.8-2.1z"/><path class="c" d="m554.8 315.2q2.1 14.4 4.1 28.8c0.2 1.4-1.2 2.2-2.4 1.8q-15.1-4.3-30.3-8.6c-2.2-0.6-0.8-3.8 1.3-3.2q15.2 4.3 30.4 8.6-1.2 0.9-2.4 1.9-2.1-14.5-4.2-28.9c-0.3-2.2 3.2-2.7 3.5-0.4z"/><path class="c" d="m575.9 342.7q3.3 14.3 6.5 28.5c0.3 1-0.9 2.1-1.9 1.9q-15.5-3-31-6.1c-2.2-0.4-1.7-3.9 0.5-3.4q15.5 3 31 6.1-1 0.9-2 1.9-3.3-14.2-6.6-28.4c-0.5-2.2 3-2.6 3.5-0.5z"/><path class="c" d="m599.6 368.7q3.8 14.1 7.5 28.1c0.3 1.2-0.4 2.7-1.9 2.4q-15.5-2.5-31.1-5.1c-2.2-0.3-1.7-3.8 0.5-3.4q15.5 2.5 31.1 5.1-0.9 1.2-1.8 2.3-3.8-14.1-7.5-28.2c-0.6-2.1 2.7-3.4 3.2-1.2z"/><path class="c" d="m622.8 393.1q4.9 13.7 9.9 27.4c0.4 1.3-0.5 2.5-1.9 2.4q-15.7-1.2-31.4-2.3c-2.3-0.2-1.8-3.7 0.5-3.5q15.7 1.2 31.4 2.3-0.9 1.2-1.8 2.4-5-13.7-9.9-27.4c-0.8-2.1 2.4-3.4 3.2-1.3z"/><path class="c" d="m652.1 416.5q5 13.8 9.9 27.5c0.5 1.3-0.5 2.5-1.8 2.4q-15.7-1.2-31.5-2.4c-2.2-0.1-1.7-3.6 0.5-3.4q15.7 1.1 31.5 2.3-1 1.2-1.9 2.4-4.9-13.7-9.9-27.5c-0.7-2.1 2.5-3.4 3.2-1.3z"/><path class="c" d="m680.1 441.6q4.2 11.7 8.4 23.4c0.5 1.3-0.5 2.4-1.8 2.3q-13.4-0.9-26.8-1.9c-2.3-0.2-1.8-3.7 0.4-3.5q13.4 1 26.9 2-1 1.2-1.9 2.4-4.2-11.7-8.4-23.4c-0.8-2.1 2.4-3.4 3.2-1.3z"/><path class="c" d="m703.1 460.6q3.9 10 7.8 19.9c0.5 1.3-0.6 2.5-1.9 2.4q-11.5-0.6-23.1-1.1c-2.2-0.1-1.7-3.6 0.5-3.5q11.5 0.6 23.1 1.1-0.9 1.2-1.9 2.4-3.8-9.9-7.7-19.9c-0.8-2.1 2.4-3.4 3.2-1.3z"/><path class="c" d="m722.5 477.6q4 7.6 8 15.2c0.5 1-0.3 2.3-1.4 2.4q-9.3 0.6-18.6 1.2c-2.2 0.2-2.6-3.3-0.4-3.4q9.3-0.6 18.6-1.3-0.7 1.2-1.4 2.4-4-7.6-8-15.2c-1.1-2 2.1-3.3 3.2-1.3z"/><path class="O" d="m1079.2 535.4c-116.4 45-254.4 26.7-259.3 11.3-2.8-8.9 85.4-40 157.1-77.7 54.2-28.5 205.8-130.9 230.2-51.9 8.5 27.5-11.8 73.5-128 118.3z"/><path class="c" d="m1172.5 428.5c-66.8 40.2-142.2 69.4-216.4 92.3-40.4 12.4-81.5 22.6-123.1 30.3-2.1 0.4-3.2-2.9-1-3.3 83-15.4 164.1-40.6 241.6-74.1 33-14.2 66.1-29.5 97-48.1 1.9-1.2 3.8 1.8 1.9 2.9z"/><path class="c" d="m1144.1 420.8q-11.1 17.3-22.2 34.5-0.6-1.2-1.2-2.4 22 3.3 43.9 6.7c2.2 0.3 1.5 3.7-0.7 3.4q-21.9-3.4-43.9-6.7c-1-0.2-1.8-1.6-1.2-2.5q11.1-17.3 22.2-34.5c1.2-1.9 4.4-0.3 3.1 1.5z"/><path class="c" d="m1106.3 438.5q-11.1 17.2-22.2 34.5-0.6-1.2-1.2-2.5 21.9 3.4 43.9 6.7c2.2 0.4 1.4 3.8-0.8 3.4q-21.9-3.3-43.8-6.7c-1-0.1-1.8-1.5-1.2-2.5q11.1-17.2 22.2-34.5c1.2-1.8 4.3-0.3 3.1 1.6z"/><path class="c" d="m1066.6 456.8q-11.6 16.8-23.3 33.7-0.5-1.4-0.9-2.8 21.8 4 43.6 8.1c2.2 0.4 1.5 3.8-0.7 3.4q-21.8-4.1-43.6-8.1c-1.5-0.3-1.7-1.9-1-2.9q11.7-16.9 23.3-33.7c1.3-1.9 3.9 0.4 2.6 2.3z"/><path class="c" d="m1028.5 474.1q-13.1 15.8-26.2 31.6-0.4-1.4-0.9-2.8 21.4 5.9 42.7 11.9c2.2 0.6 1.5 4-0.7 3.4q-21.4-6-42.7-11.9c-1.3-0.4-1.8-1.8-1-2.9q13.1-15.8 26.2-31.6c1.4-1.7 4 0.6 2.6 2.3z"/><path class="c" d="m988.6 487.8q-13.1 15.8-26.2 31.6-0.5-1.4-1-2.9 21.4 6 42.8 12c2.1 0.6 1.4 4-0.7 3.4q-21.4-6-42.8-12c-1.3-0.3-1.8-1.8-0.9-2.8q13.1-15.8 26.1-31.6c1.5-1.7 4.1 0.6 2.7 2.3z"/><path class="c" d="m948.5 500q-12.8 15.4-25.5 30.8-0.5-1.5-0.9-2.9 20.7 5.8 41.5 11.6c2.2 0.6 1.5 4-0.7 3.4q-20.8-5.8-41.6-11.6c-1.2-0.3-1.8-1.8-0.9-2.8q12.7-15.4 25.5-30.8c1.4-1.7 4 0.6 2.6 2.3z"/><path class="c" d="m908.9 514.8q-11.2 12.9-22.5 25.8-0.5-1.4-1-2.9 17.7 5.5 35.4 10.9c2.2 0.7 1.5 4.1-0.7 3.4q-17.7-5.4-35.4-10.9c-1.2-0.3-1.8-1.8-0.9-2.8q11.2-12.9 22.5-25.8c1.5-1.7 4.1 0.6 2.6 2.3z"/><path class="c" d="m875.5 528.2q-10.5 9.5-21 19.1-0.2-1.4-0.5-2.7 14 6.1 28.1 12.2c2 0.9 0.5 4-1.6 3.1q-14-6.1-28.1-12.2c-0.9-0.4-1.3-2-0.5-2.7q10.5-9.6 21-19.1c1.6-1.5 4.2 0.8 2.6 2.3z"/><path class="P" d="m930.9 642c-65.2-24.9-111.4-90.9-110.2-94.3 3-8.1 46 21.3 87.4 30.3 35.8 7.7 160 13.4 150.9 58.9-5.6 28-67.7 28.1-128.1 5.1z"/><path class="c" d="m1044.5 638.9c-76.7-11.8-155-41.1-219.9-83.4-1.8-1.2-0.3-4.3 1.6-3.1 64.7 42.2 142.5 71.3 219 83.1 2.2 0.3 1.5 3.7-0.7 3.4z"/><path class="c" d="m1035.7 624.6q-11.4 4-22.8 8 0.3-1.5 0.6-2.9 9 9.5 18 19c1.5 1.6-0.8 4.2-2.3 2.6q-9-9.5-18-19c-0.9-1-0.7-2.5 0.6-3q11.4-4 22.9-8c2.1-0.8 3.1 2.6 1 3.3z"/><path class="c" d="m1007.3 619.6q-11.7 3.1-23.4 6.1 0.4-1.3 0.9-2.6 8.2 10.2 16.3 20.5c1.4 1.7-1.5 3.6-2.9 1.9q-8.1-10.3-16.3-20.5c-0.7-0.9-0.1-2.4 0.9-2.6q11.7-3.1 23.5-6.1c2.1-0.6 3.2 2.8 1 3.3z"/><path class="c" d="m978.8 612.1q-11.8 2.7-23.7 5.4 0.5-1.3 1-2.6 7.8 10.4 15.6 20.9c1.4 1.8-1.5 3.7-2.9 1.9q-7.8-10.5-15.6-20.9c-0.7-0.9-0.2-2.4 0.9-2.7q11.8-2.6 23.6-5.3c2.2-0.5 3.3 2.9 1.1 3.3z"/><path class="c" d="m951.5 604.5q-12 1.6-24 3.3 0.6-1.4 1.3-2.7 6.9 11.1 13.8 22.2c1.2 1.9-1.7 3.9-2.9 1.9q-6.9-11.1-13.8-22.2c-0.7-1.2 0.1-2.5 1.4-2.7q12-1.6 24-3.2c2.2-0.3 2.4 3.1 0.2 3.4z"/><path class="c" d="m922.9 591.9q-12 1.6-24 3.2 0.7-1.3 1.4-2.7 6.9 11.2 13.7 22.3c1.2 1.9-1.7 3.8-2.9 1.9q-6.8-11.1-13.7-22.3c-0.8-1.1 0-2.5 1.3-2.7q12-1.6 24-3.2c2.3-0.3 2.4 3.2 0.2 3.5z"/><path class="c" d="m893.8 580.9q-10.3 1.4-20.5 2.7 0.7-1.3 1.4-2.6 5.8 9.5 11.7 19c1.2 1.9-1.7 3.8-2.9 1.9q-5.9-9.5-11.8-19c-0.7-1.2 0.1-2.6 1.4-2.7q10.3-1.4 20.5-2.8c2.2-0.3 2.4 3.2 0.2 3.5z"/><path class="c" d="m870.9 571.2q-8.8 1-17.6 2 0.7-1.4 1.3-2.7 4.9 8.3 9.7 16.6c1.1 1.9-1.8 3.8-2.9 1.9q-4.8-8.3-9.7-16.6c-0.7-1.2 0.1-2.6 1.4-2.7q8.8-1 17.7-1.9c2.2-0.3 2.3 3.2 0.1 3.4z"/><path class="c" d="m851 563.5q-7.2-0.1-14.3-0.1 0.8-1.1 1.6-2.3 3.1 7.1 6.2 14.2c0.9 2-2.4 3.1-3.3 1q-3.2-7-6.3-14.1c-0.4-1 0.6-2.3 1.6-2.3q7.2 0.1 14.3 0.1c2.2 0 2.4 3.5 0.2 3.5z"/><path class="Q" d="m820.7 547.7c-10.1-3.4 42.4-103.3 105.3-165.5 62.9-62.2 115.8-85 130.4-60.4 21.6 36.2-81.3 105.7-111.5 126.5-30.1 20.9-112.9 103.2-124.2 99.4z"/><path class="c" d="m1027.7 352.8c-24.5 15.5-47.6 33.5-69.8 52-50.2 41.9-96.1 89.7-132.3 144.3-1.2 1.9-4.3 0.3-3.1-1.5 35.4-53.5 79.9-100.3 128.7-141.7 23.6-20 48.3-39.5 74.6-56 1.9-1.2 3.8 1.8 1.9 2.9z"/><path class="c" d="m1023 373.5q-14.6 1-29.1 2.1c-1.5 0.1-2.1-1.4-1.7-2.6q5.4-14.8 10.8-29.6c0.8-2.1 3.9-0.5 3.1 1.6q-5.4 14.8-10.8 29.6-0.8-1.3-1.6-2.5 14.5-1.1 29.1-2.1c2.2-0.2 2.4 3.3 0.2 3.5z"/><path class="c" d="m993.9 392.6q-14.4 2.2-28.8 4.5c-1.1 0.2-2-1.1-1.8-2.1q4.2-15.2 8.3-30.4c0.6-2.2 4-1.5 3.4 0.7q-4.1 15.2-8.3 30.4-0.8-1-1.7-2.1 14.4-2.2 28.8-4.5c2.2-0.3 2.3 3.1 0.1 3.5z"/><path class="c" d="m966.4 414.4q-14.3 2.7-28.6 5.5c-1.2 0.2-2.6-0.7-2.3-2.1q3.7-15.3 7.3-30.6c0.5-2.2 3.9-1.5 3.4 0.7q-3.6 15.3-7.3 30.7-1.1-1-2.2-2.1 14.3-2.7 28.7-5.4c2.1-0.4 3.2 2.9 1 3.3z"/><path class="c" d="m940.4 435.8q-14 3.9-28 7.9c-1.4 0.4-2.5-0.7-2.3-2q2.3-15.6 4.6-31.2c0.3-2.2 3.7-1.5 3.4 0.7q-2.3 15.6-4.6 31.2-1.1-1-2.2-2 14-4 28.1-7.9c2.1-0.6 3.2 2.7 1 3.3z"/><path class="c" d="m914.9 463.4q-14 4-28 7.9c-1.4 0.4-2.5-0.7-2.3-2q2.3-15.6 4.6-31.2c0.3-2.2 3.7-1.5 3.4 0.7q-2.3 15.6-4.6 31.2-1.1-1-2.2-2 14-3.9 28.1-7.9c2.1-0.6 3.2 2.7 1 3.3z"/><path class="c" d="m888 489.5q-12 3.4-24 6.8c-1.3 0.3-2.4-0.7-2.2-2q1.9-13.4 3.9-26.7c0.3-2.2 3.7-1.5 3.4 0.8q-1.9 13.3-3.9 26.6-1.1-1-2.2-2 11.9-3.4 23.9-6.8c2.2-0.6 3.2 2.7 1.1 3.3z"/><path class="c" d="m867.4 511.1q-10.2 3.2-20.5 6.3c-1.3 0.4-2.3-0.7-2.2-2q1.4-11.5 2.8-22.9c0.2-2.3 3.6-1.5 3.4 0.7q-1.4 11.5-2.8 22.9-1.1-1-2.2-2 10.2-3.1 20.4-6.3c2.1-0.7 3.2 2.6 1.1 3.3z"/><path class="c" d="m849 529.2q-7.8 3.5-15.7 7c-1 0.4-2.3-0.6-2.3-1.6q0.1-9.3 0.1-18.6c0-2.2 3.5-2.4 3.5-0.2q-0.1 9.3-0.1 18.6-1.1-0.8-2.3-1.5 7.9-3.5 15.8-7c2-0.9 3.1 2.4 1 3.3z"/><path class="R" d="m708.5 680.9c30.1 46.8-17 92.6-17 92.6 59.1 33.3 56.7 103.2 24.7 122.4-82 49.2-202.9-45.2-239.1-76.3-6.3-5.5-6.9-13.6-2.6-20.5 88-141.8 203.7-165.6 234-118.2z"/><path class="c" d="m493.5 799.4c38.3-8.1 77-14.4 115.7-19.7 61.5-8.4 126.7-16.6 188.6-7.3 2.9 0.5 2.6 5.1-0.3 4.6-62.8-9.4-128.7-1-191.1 7.7-37.5 5.2-75 11.4-112 19.2-2.9 0.7-3.8-3.9-0.9-4.5z"/><path class="c" d="m710.6 850.9q-34.9-35.8-69.7-71.6c-0.7-0.8-0.6-2-0.1-2.8q24.5-42.7 49-85.3c1.5-2.6 5.3 0 3.8 2.6q-11.8 20.7-23.7 41.3-8.4 14.6-16.8 29.2c-1.9 3.3-3.7 6.8-5.8 10.1-0.9 1.3-2.3 5.8-2.7 3.3-0.5-2.8 2.3 1.4 3.2 2 2.9 2.1 5.5 5.7 7.9 8.2q11.8 12.1 23.5 24.2 17.5 17.9 34.9 35.8c2 2.2-1.5 5.2-3.5 3z"/><path class="c" d="m670.7 883q-42.9-48.1-85.7-96.3c-0.7-0.8-0.7-1.9-0.2-2.8q26-46 51.9-92c1.4-2.6 5.2 0.1 3.8 2.6q-15.2 27-30.4 54-8.7 15.4-17.3 30.7c-1.1 1.9-3.5 4.8-3.9 7 0.7-3.3-1.2-2.2 1.8 0 6.8 5.1 12.5 14.1 18.2 20.5q13.8 15.4 27.5 30.9 18.9 21.2 37.8 42.4c1.9 2.2-1.6 5.2-3.5 3z"/><path class="c" d="m605.7 873.4q-32.9-39.7-65.8-79.3c-0.7-0.9-0.6-1.9-0.1-2.8q20-39 40-78c1.4-2.6 5.2 0 3.8 2.6q-11 21.6-22.1 43.1-7.1 13.9-14.3 27.8c-1 1.9-2.7 4.2-3.2 6.3-0.1 0.5-1.6-3.4 0.9-0.2 20.6 26.4 42.9 51.7 64.3 77.5 1.9 2.2-1.6 5.2-3.5 3z"/><path class="c" d="m525.3 832.4q-13.9-15.1-27.9-30.3c-0.5-0.5-0.8-1.6-0.4-2.3q9.5-19.1 19-38.3c1.3-2.6 5.7-1.2 4.4 1.5q-4.5 9-9 18.1c-2.5 5.1-9.6 14.3-10 20.1 0.3-3.4 1.5 0.1 3.6 2.3q4.5 4.9 9 9.9 7.4 8 14.8 16c2.1 2.2-1.4 5.2-3.5 3z"/><path class="S" d="m771.4 1021.1l-8.6-340.3q0.9-0.1 1.7-0.1c21.7 0.2 98.3 84.6 93 115.5-5.2 30.9-36-9.7-36-9.7 0 0 26.1 127.5 9.8 141.4-16.4 13.9-32.4-14.8-32.4-14.8 0 0 5.2 101.4-27.5 108z"/><path class="T" d="m762.8 680.8l8.6 340.3q-0.5 0.1-1 0.2c-33.8 4.7-44-190-44-190 0 0-15 25.9-30.6 19.1-23.6-10.4 31.9-165.1 67-169.6z"/><path class="c" d="m766.3 994.7q-0.2-15.4-0.5-30.8c-1.5-94.4-3.8-188.8-2.9-283.2 0-2.1 3.2-2 3.2 0-0.2 22.7 0 45.3 0.2 68 0.6 82 1.9 164 3.3 246 0 2.1-3.3 2.1-3.3 0z"/><path class="c" d="m831.5 778.1c-16.8-26.5-39.4-55.5-67.9-69.7-1.9-1-0.2-3.7 1.7-2.8 29.1 14.5 51.9 43.9 69 70.9 1.2 1.8-1.7 3.4-2.8 1.6z"/><path class="c" d="m708.5 828.4c13.8-27.6 30.9-56.4 54.2-76.9 1.5-1.4 3.8 0.9 2.2 2.3-23 20.4-40 48.9-53.6 76.3-0.9 1.9-3.7 0.2-2.8-1.7z"/><path class="c" d="m810.6 904.4c-11-30.4-24-65.9-46.5-89.7-1.4-1.6 0.9-3.8 2.4-2.3 22.9 24.3 36 60.1 47.3 91.1 0.7 2-2.5 2.8-3.2 0.9z"/><path class="U" d="m813.5 608.5c0.2 48.2-55.5 59.8-55.5 59.8 27.7 51.8-6.5 101.7-38.8 100.9-82.8-2.2-127.3-127.3-139.2-166.8-2.1-7 1.2-13.2 7.5-16.2 130.2-62.7 225.8-26.4 226 22.3z"/><path class="c" d="m601.3 595.2c31.7 11.9 62.9 25.2 93.7 39.4 48.9 22.4 100.2 46.7 141.1 82.3 1.9 1.7-0.4 4.9-2.3 3.2-41.5-36.1-93.6-60.5-143.2-83.2-29.8-13.6-60.1-26.5-90.7-38-2.5-0.9-1-4.6 1.4-3.7z"/><path class="c" d="m735.9 733.7q-8.7-42.3-17.5-84.7c-0.2-0.9 0.4-1.7 1.2-2.1q37.7-19.8 75.4-39.5c2.3-1.2 3.9 2.5 1.6 3.7q-18.3 9.5-36.6 19.1-12.9 6.8-25.8 13.5c-2.9 1.6-5.9 3.3-8.9 4.7-1.3 0.6-4.4 3.2-3.5 1.1 1-2.2 1 2.1 1.4 3.1 1.1 2.8 1.4 6.6 2 9.6q2.9 14.3 5.9 28.6 4.4 21.2 8.8 42.4c0.5 2.5-3.4 3-4 0.5z"/><path class="c" d="m691.9 738.6q-8.9-55.1-17.9-110.1c-0.1-1 0.4-1.7 1.2-2.1q40.3-21.6 80.7-43.2c2.2-1.2 3.8 2.5 1.5 3.7q-23.6 12.6-47.2 25.3-13.5 7.2-27 14.4c-1.7 0.9-4.7 1.9-6.1 3.2 2.1-2 0.2-2.1 1.3 0.9 2.7 6.9 2.7 16.2 3.8 23.5q2.9 17.6 5.8 35.3 3.9 24.3 7.8 48.5c0.5 2.6-3.5 3.1-3.9 0.6z"/><path class="c" d="m648.9 701.4q-5.6-44.3-11.2-88.5c-0.2-1 0.4-1.7 1.2-2.1q32.7-19.2 65.5-38.4c2.2-1.3 3.7 2.4 1.5 3.7q-18.1 10.6-36.1 21.2-11.7 6.8-23.4 13.7c-1.6 0.9-4 1.8-5.3 3.1-0.3 0.3 0.4-3.3 0.8 0.2 2.8 28.9 7.3 57.7 11 86.5 0.3 2.6-3.7 3.1-4 0.6z"/><path class="c" d="m609.2 634.1q-3.1-17.5-6.3-35.1c-0.1-0.6 0.2-1.5 0.7-1.9q15.9-9.5 31.8-19.1c2.2-1.3 4.7 1.8 2.5 3.1q-7.5 4.5-15 9c-4.2 2.6-13.6 6-16.7 10.1 1.8-2.4 1.1 0.8 1.6 3.3q1 5.7 2 11.4 1.7 9.4 3.4 18.7c0.4 2.5-3.5 3.1-4 0.5z"/><path class="V" d="m924.6 221.7l-137.1 425.7c-25.3-15.9-65.2-147-40.9-165.7 24.2-18.6 36.8 28.5 37.7 31.9-0.6-5.4-15.1-125 5.8-138 21.2-13.2 29.6 31.8 29.7 33 0.3-2.2 12.8-122.8 29.9-127.1 17.2-4.5 24.2 35.4 24.2 35.4 0 0 29.1-96.3 50.7-95.2z"/><path class="W" d="m789.9 648.6q-1.1-0.4-2.4-1.2l137.1-425.7q1 0.1 1.9 0.4c21.7 7.3-14.7 129.3-14.7 129.3 0 0 16.7-40.3 35.9-30.2 18.3 9.7-33.6 105.9-38.7 115.4 3-5 21.2-33.8 37.3-22.8 17.7 12-61.6 125.4-61.6 125.4 0 0 25.7-25.4 38.4-10 16.3 19.7-111.3 126.8-133.2 119.4z"/><path class="c" d="m917.9 247.1q-7.9 25-15.8 49.9-55.7 176-111.4 351.9c-0.9 2.9-5.4 1.4-4.4-1.5q7.9-24.9 15.8-49.9 55.6-175.9 111.3-351.8c0.9-2.9 5.4-1.5 4.5 1.4z"/><path class="c" d="m760.1 496.6q20.1 61 40.1 122c1 2.9-3.6 3.9-4.6 1q-20-61-40.1-122c-0.9-2.9 3.7-3.9 4.6-1z"/><path class="c" d="m909.6 537.1q-51.8 31.3-103.6 62.7c-2.6 1.6-4.8-2.6-2.2-4.2q51.8-31.4 103.6-62.7c2.6-1.6 4.8 2.6 2.2 4.2z"/><path class="c" d="m797.8 397.5q13.6 71.6 27.2 143.2c0.6 3-4 4-4.6 1q-13.6-71.6-27.2-143.1c-0.6-3 4-4 4.6-1.1z"/><path class="c" d="m931.7 425.9q-48.5 41-97.1 81.9c-2.4 2-5.5-1.6-3.2-3.5q48.6-41 97.2-81.9c2.3-2 5.5 1.5 3.1 3.5z"/><path class="c" d="m851.4 301q2.5 69.6 5 139.3c0.1 3-4.6 2.8-4.7-0.2q-2.5-69.7-5-139.3c-0.1-3 4.6-2.8 4.7 0.2z"/><path class="c" d="m932.3 343.5q-32.4 30.8-64.7 61.6c-2.2 2.1-5.4-1.5-3.2-3.5q32.4-30.8 64.8-61.6c2.2-2.1 5.3 1.4 3.1 3.5z"/><path class="X" d="m802.7 791.6c19.4 7.7 25-116.2-48.7-199.6-13.9-15.7-5.2 178.1 48.7 199.6z"/><path class="d" d="m757.7 610.4c12.2 60.5 24.8 122.7 46.4 180.6 0.8 1.9-2.2 3-2.9 1.1-21.7-58.2-34.4-120.6-46.6-181.4-0.4-2 2.7-2.3 3.1-0.3z"/><path class="d" d="m783.2 651.5q-3.5 21.2-7 42.4c-0.2 1.1-1.7 1.8-2.6 0.9q-7.9-7.7-15.7-15.4c-1.5-1.4 0.5-3.8 2-2.4q7.8 7.7 15.7 15.4-1.2 0.5-2.5 1 3.5-21.3 7.1-42.5c0.3-1.9 3.4-1.4 3 0.6z"/><path class="d" d="m767.1 721.8q11.5 12.9 23 25.7-1.4 0.3-2.8 0.6 3.9-13.4 7.7-26.9c0.6-1.9 3.7-1.4 3.1 0.5q-3.9 13.5-7.7 27c-0.4 1.3-1.9 1.6-2.8 0.6q-11.6-12.9-23.1-25.7c-1.3-1.5 1.3-3.3 2.6-1.8z"/><path class="Y" d="m741.4 726.9c22.2-1.6-37.5-172.2-150.7-216-25.1-9.7 85.4 220.6 150.7 216z"/><path class="Z" d="m703.6 673.7q15.4 20 31.2 39.7c10.5 13.1 21.2 26.1 32.1 38.8 10.9 12.8 22 25.3 33.6 37.4 5.8 6.1 11.6 12.1 17.6 17.9 3.1 2.8 6.1 5.7 9.2 8.5l9.4 8.3c12.7 10.8 26.2 20.8 39.9 30.5q20.6 14.3 42.3 27.2c14.4 8.6 29.2 16.7 44.2 24.3-31.1-13-61-29-89.3-47.5-14.1-9.2-27.8-19.3-40.9-30-6.4-5.5-12.9-11.1-19-16.9-6.1-5.9-12.1-11.9-17.9-18-11.6-12.3-22.8-24.9-33.6-37.9-10.8-13-21.3-26.2-31.4-39.6-20.4-26.9-39.8-54.5-57.9-82.9 10.1 13.5 20.2 27 30.5 40.2z"/><path class="d" d="m599 522.1c17.3 26.8 35.1 53.3 53.1 79.7 28.2 41.3 56.4 83.3 89.1 121.2 1.3 1.5-1.2 3.3-2.6 1.7-32.7-37.8-60.9-79.9-89.1-121.1-18-26.4-35.7-53-53.1-79.8-1.1-1.6 1.5-3.4 2.6-1.7z"/><path class="d" d="m648.4 561.3q3.3 22.5 6.5 45c0.2 1.2-1.1 2-2.2 1.6q-13.1-5.9-26.2-11.8c-1.8-0.9-0.5-3.7 1.4-2.9q13.1 5.9 26.1 11.8-1.1 0.8-2.2 1.6-3.2-22.5-6.5-45c-0.3-2 2.8-2.3 3.1-0.3z"/><path class="d" d="m655.5 644.8q21 13 41.9 25.9c2.3 1.4 4.4 2.9 6.7 4.2-1.5-0.8-1 2.3-1.7-0.1-0.5-1.4 0.3-4.1 0.4-5.5q0.9-12.3 1.9-24.5c0.1-2 3.2-1.4 3.1 0.6q-1.3 15.7-2.5 31.4c0 0.9-1.4 1.6-2.2 1.1q-24.4-15.1-48.9-30.2c-1.7-1.1-0.4-3.9 1.3-2.9z"/><path class="a0" d="m551.3 777.8c4.8-10.4 86.8-17.2 142.1-9.9 55.4 7.3 160.9 59.9 150.4 73.6-47.4 62-297.3-53.3-292.5-63.7z"/><path class="d" d="m843.6 843.1c-62.8-17.1-125.9-33.4-189.4-47.1-19.6-4.2-39.2-8.3-59.1-10.9-2-0.3-1.4-3.4 0.6-3.1 38.2 5.1 75.9 14.4 113.4 23.4 37.3 8.9 74.5 18.5 111.6 28.3q11.7 3.1 23.4 6.3c1.9 0.5 1.4 3.6-0.5 3.1z"/><path class="d" d="m747.6 790.4q21.6 17.8 43.3 35.6c0.7 0.6 0.7 2-0.1 2.5q-13.2 7.8-26.4 15.5c-1.7 1.1-3.5-1.5-1.7-2.5q10.2-6.1 20.5-12.1c1.2-0.7 3.2-2.5 4.6-2.7 2.4-0.5-0.3 0.3 0.8 1.5-1.7-1.7-3.8-3.1-5.6-4.6q-18.7-15.4-37.4-30.8c-1.6-1.3 0.4-3.6 2-2.4z"/><path class="d" d="m658.8 818.2q27.9-5.7 55.7-11.4-0.4 1.4-0.8 2.7-15-12.6-30-25.3c-1.5-1.3 0.5-3.7 2-2.4q15 12.7 30 25.4c1.1 0.9 0.4 2.4-0.9 2.7q-27.9 5.7-55.8 11.4c-1.9 0.4-2.2-2.7-0.2-3.1z"/><path class="a1" d="m904.2 550.5c5.8-1.2 11.2 1.2 13.4 6.9 12.3 32.4 47 138.2-6.9 182.1-21 17.1-69.2 1.5-77.4-47.1 0 0-42.9 20.9-67.5-11.1-24.9-32.5 19.9-105.6 138.4-130.8z"/><path class="c" d="m902.6 565.3c-14.5 23.4-27.9 47.5-40.7 71.8-21.3 40.5-43.3 83.4-52.3 128.6-0.5 2.1-3.7 1.2-3.3-0.9 8.9-44.6 30.5-87.1 51.5-127 13.1-25.2 27-50.1 42-74.2 1.1-1.8 4-0.1 2.8 1.7z"/><path class="c" d="m878.5 726.2q-7.9-16.3-15.9-32.6-5.3-11-10.7-22c-1.1-2.3-2.9-5-3.6-7.5-0.2-0.8-2.4-3.7-0.6-2.7 1.6 0.9-1.8 0.8-3 1.1-2.7 0.6-5.5 1-8.3 1.5q-12 2.1-24 4.2-17.1 3-34.1 6.1c-2.1 0.3-3-2.9-0.9-3.3q35.2-6.2 70.4-12.4c0.7-0.2 1.5 0 1.9 0.7q15.9 32.6 31.7 65.3c1 1.9-1.9 3.5-2.9 1.6z"/><path class="c" d="m910.3 706.9q-9.9-18.2-19.7-36.3-7.2-13.2-14.3-26.4c-3-5.4-7.8-11.5-9.5-17.5-0.8-2.5-2-1.5 0.4-1.2-1.6-0.2-4.1 0.7-5.7 0.9q-12.6 2.2-25.3 4.3-22.1 3.7-44.3 7.4c-2.1 0.4-3-2.8-0.9-3.2q37.9-6.4 75.7-12.7c0.7-0.1 1.5 0.1 1.9 0.8q22.3 41.1 44.6 82.2c1 1.9-1.9 3.5-2.9 1.7z"/><path class="c" d="m919.7 660.1c-12.3-21-24.1-42.4-37.1-63-1.5-2.5 0.8-0.5 0.4-0.6-1.5-0.2-3.5 0.5-5.1 0.7q-11.2 1.4-22.5 2.9-17.4 2.2-34.9 4.5c-2.1 0.3-2.9-3-0.8-3.3q31.6-4 63.1-8.1c0.8-0.1 1.5 0.1 1.9 0.8q18.9 32.2 37.9 64.5c1.1 1.8-1.8 3.5-2.9 1.6z"/><path class="c" d="m911.5 595.1q-3.6-7-7.3-14-2.2-4.3-4.5-8.7c-1-1.9-3.1-3.6-0.7-3-4.1-1.1-12.1 1.4-16.2 1.9q-7.3 0.8-14.6 1.7c-2.1 0.2-2-3.1 0.1-3.4q15.4-1.7 30.9-3.5c0.6-0.1 1.2 0.4 1.4 0.8q6.9 13.3 13.9 26.6c1 1.9-2 3.6-3 1.6z"/></svg>